M48
METRIC,LZ,000.000
;FILE_FORMAT=3:3
;TYPE=PLATED
;Layer: PTH_Through
;EasyEDA v6.5.22, 2023-04-22 10:10:04
;1b96b35224f94a88acdb7b821174fc80,0997c0c323a540828c61b468e30a80a1,10
;Gerber Generator version 0.2
;Holesize 1 = 0.800 mm
T01C0.800
;Holesize 2 = 0.889 mm
T02C0.889
%
G05
G90
T01
X042626Y112753
X040025Y112756
X037526Y112753
X035027Y112753
X032428Y112753
X042525Y052456
X040025Y052456
X037526Y052357
X034928Y052354
X032426Y052357
T02
X016129Y065786
X016129Y068326
X016129Y070866
X016129Y073406
X016129Y075946
X016129Y078486
X016129Y081026
X016129Y083566
X016129Y086106
X016129Y088646
X060071Y065786
X060071Y068326
X060071Y070866
X060071Y073406
X060071Y075946
X060071Y078486
X060071Y081026
X060071Y083566
X060071Y086106
X060071Y088646
M30
