G04 Layer: BottomLayer*
G04 EasyEDA v6.5.23, 2023-06-06 19:11:06*
G04 440996f75ca54165bcb2688da9f4019d,0997c0c323a540828c61b468e30a80a1,10*
G04 Gerber Generator version 0.2*
G04 Scale: 100 percent, Rotated: No, Reflected: No *
G04 Dimensions in millimeters *
G04 leading zeros omitted , absolute positions ,4 integer and 5 decimal *
%FSLAX45Y45*%
%MOMM*%

%ADD10C,0.5000*%
%ADD11C,0.2540*%
%ADD12C,1.0000*%
%ADD13O,1.524X1.9999959999999999*%
%ADD14C,1.5748*%
%ADD15R,1.5748X1.5748*%
%ADD16C,0.6100*%
%ADD17C,0.0152*%

%LPD*%
G36*
X1826006Y8254492D02*
G01*
X1822094Y8255253D01*
X1818843Y8257438D01*
X1743913Y8332368D01*
X1741525Y8336076D01*
X1740966Y8340445D01*
X1742084Y8352790D01*
X1741627Y8368080D01*
X1739341Y8383219D01*
X1735328Y8398002D01*
X1729587Y8412175D01*
X1722170Y8425586D01*
X1713230Y8438032D01*
X1702917Y8449310D01*
X1691335Y8459317D01*
X1678635Y8467852D01*
X1665376Y8474659D01*
X1662379Y8476996D01*
X1660448Y8480247D01*
X1659889Y8484006D01*
X1660702Y8487714D01*
X1662836Y8490864D01*
X1665935Y8492998D01*
X1671929Y8495639D01*
X1685086Y8503412D01*
X1697278Y8512708D01*
X1708251Y8523376D01*
X1717903Y8535263D01*
X1726082Y8548217D01*
X1732635Y8562035D01*
X1733600Y8564880D01*
X1658620Y8564880D01*
X1658620Y8491169D01*
X1657959Y8487562D01*
X1656080Y8484463D01*
X1653184Y8482177D01*
X1649730Y8481110D01*
X1646072Y8481314D01*
X1635760Y8483803D01*
X1620570Y8485581D01*
X1605229Y8485581D01*
X1590040Y8483803D01*
X1579727Y8481314D01*
X1576070Y8481110D01*
X1572615Y8482177D01*
X1569720Y8484463D01*
X1567840Y8487562D01*
X1567180Y8491169D01*
X1567180Y8564880D01*
X1496568Y8564880D01*
X1492656Y8565642D01*
X1489405Y8567877D01*
X1487170Y8571128D01*
X1486408Y8575040D01*
X1486408Y8646160D01*
X1487170Y8650071D01*
X1489405Y8653322D01*
X1492656Y8655558D01*
X1496568Y8656320D01*
X1567180Y8656320D01*
X1567180Y8818880D01*
X1496568Y8818880D01*
X1492656Y8819642D01*
X1489405Y8821877D01*
X1487170Y8825128D01*
X1486408Y8829040D01*
X1486408Y8900160D01*
X1487170Y8904071D01*
X1489405Y8907322D01*
X1492656Y8909558D01*
X1496568Y8910320D01*
X1567180Y8910320D01*
X1567180Y8993835D01*
X1534617Y8993835D01*
X1525371Y8993022D01*
X1516888Y8990787D01*
X1508912Y8987028D01*
X1502410Y8982456D01*
X1498346Y8980779D01*
X1493926Y8980982D01*
X1490014Y8983014D01*
X1487373Y8986520D01*
X1486408Y8990787D01*
X1486408Y11715242D01*
X1487170Y11719153D01*
X1489405Y11722404D01*
X1492656Y11724640D01*
X1496568Y11725402D01*
X6124448Y11725402D01*
X6128359Y11724640D01*
X6131610Y11722404D01*
X6133846Y11719153D01*
X6134608Y11715242D01*
X6134608Y8990076D01*
X6133642Y8985758D01*
X6131001Y8982303D01*
X6127089Y8980271D01*
X6122670Y8980068D01*
X6118606Y8981744D01*
X6111087Y8987028D01*
X6103112Y8990736D01*
X6094628Y8993022D01*
X6085382Y8993835D01*
X6052820Y8993835D01*
X6052820Y8910320D01*
X6124448Y8910320D01*
X6128359Y8909507D01*
X6131610Y8907322D01*
X6133846Y8904020D01*
X6134608Y8900160D01*
X6134608Y8829040D01*
X6133846Y8825128D01*
X6131610Y8821826D01*
X6128359Y8819642D01*
X6124448Y8818880D01*
X6052820Y8818880D01*
X6052820Y8656320D01*
X6124448Y8656320D01*
X6128359Y8655507D01*
X6131610Y8653322D01*
X6133846Y8650020D01*
X6134608Y8646160D01*
X6134608Y8575040D01*
X6133846Y8571128D01*
X6131610Y8567826D01*
X6128359Y8565642D01*
X6124448Y8564880D01*
X6052820Y8564880D01*
X6052820Y8491169D01*
X6052159Y8487562D01*
X6050280Y8484412D01*
X6047384Y8482177D01*
X6043930Y8481060D01*
X6040272Y8481263D01*
X6029960Y8483752D01*
X6014770Y8485581D01*
X5999429Y8485581D01*
X5984240Y8483752D01*
X5973927Y8481263D01*
X5970270Y8481060D01*
X5966815Y8482177D01*
X5963920Y8484412D01*
X5962040Y8487562D01*
X5961380Y8491169D01*
X5961380Y8564880D01*
X5886399Y8564880D01*
X5887364Y8562035D01*
X5893917Y8548217D01*
X5902096Y8535263D01*
X5911748Y8523376D01*
X5922721Y8512708D01*
X5934913Y8503412D01*
X5948070Y8495639D01*
X5954064Y8492998D01*
X5957163Y8490813D01*
X5959297Y8487664D01*
X5960110Y8484006D01*
X5959551Y8480247D01*
X5957620Y8476996D01*
X5954623Y8474659D01*
X5941364Y8467852D01*
X5928664Y8459317D01*
X5917082Y8449310D01*
X5903315Y8434070D01*
X5900470Y8432596D01*
X5897321Y8432088D01*
X3103118Y8432038D01*
X3094278Y8431225D01*
X3091891Y8430818D01*
X3083306Y8428685D01*
X3080969Y8427923D01*
X3070606Y8423452D01*
X3063036Y8418880D01*
X3061055Y8417458D01*
X3054248Y8411819D01*
X2899816Y8257438D01*
X2896514Y8255253D01*
X2892602Y8254492D01*
X2523794Y8254492D01*
X2519832Y8255253D01*
X2516530Y8257489D01*
X2514346Y8260842D01*
X2513634Y8264753D01*
X2514447Y8268665D01*
X2516733Y8271967D01*
X2519070Y8274202D01*
X2526284Y8283549D01*
X2532481Y8294674D01*
X2534158Y8296909D01*
X2953613Y8716314D01*
X2956915Y8718550D01*
X2960827Y8719312D01*
X3522065Y8719312D01*
X3526028Y8718499D01*
X3529380Y8716213D01*
X3531565Y8712809D01*
X3532225Y8708796D01*
X3531260Y8704834D01*
X3529126Y8700262D01*
X3525723Y8688984D01*
X3523996Y8677249D01*
X3523996Y8665464D01*
X3525723Y8653729D01*
X3529126Y8642400D01*
X3534156Y8631732D01*
X3540658Y8621877D01*
X3548583Y8613038D01*
X3557625Y8605469D01*
X3567734Y8599322D01*
X3569868Y8598408D01*
X3573068Y8596274D01*
X3612743Y8556650D01*
X3619550Y8551011D01*
X3629101Y8545068D01*
X3631285Y8543950D01*
X3639464Y8540546D01*
X3641801Y8539784D01*
X3650386Y8537651D01*
X3652774Y8537244D01*
X3661613Y8536432D01*
X4593437Y8536381D01*
X4609592Y8532266D01*
X4621377Y8530945D01*
X4633163Y8531402D01*
X4644796Y8533536D01*
X4655972Y8537346D01*
X4666488Y8542782D01*
X4676140Y8549640D01*
X4684623Y8557869D01*
X4691837Y8567216D01*
X4697628Y8577529D01*
X4701895Y8588552D01*
X4704435Y8600084D01*
X4705299Y8611870D01*
X4704435Y8623706D01*
X4701895Y8635238D01*
X4697628Y8646261D01*
X4691837Y8656574D01*
X4688484Y8660942D01*
X4686706Y8664549D01*
X4686503Y8668613D01*
X4687874Y8672423D01*
X4690618Y8675420D01*
X4692091Y8676436D01*
X4700574Y8684666D01*
X4707788Y8694013D01*
X4713579Y8704326D01*
X4717846Y8715349D01*
X4720386Y8726881D01*
X4721250Y8738666D01*
X4720386Y8750503D01*
X4717846Y8762034D01*
X4713579Y8773058D01*
X4707788Y8783370D01*
X4700574Y8792718D01*
X4692091Y8800947D01*
X4682439Y8807805D01*
X4671923Y8813241D01*
X4660747Y8817051D01*
X4649114Y8819184D01*
X4637328Y8819591D01*
X4625543Y8818321D01*
X4614113Y8815324D01*
X4603242Y8810701D01*
X4593132Y8804554D01*
X4584090Y8796985D01*
X4580280Y8792718D01*
X4576826Y8790228D01*
X4572711Y8789365D01*
X4564024Y8789365D01*
X4560316Y8790076D01*
X4557115Y8792057D01*
X4554880Y8795105D01*
X4553864Y8798763D01*
X4553305Y8806637D01*
X4550765Y8818168D01*
X4546498Y8829192D01*
X4540707Y8839504D01*
X4533493Y8848852D01*
X4525010Y8857081D01*
X4515358Y8863939D01*
X4504842Y8869375D01*
X4493666Y8873185D01*
X4482033Y8875318D01*
X4470247Y8875725D01*
X4458462Y8874455D01*
X4442307Y8870340D01*
X2922676Y8870289D01*
X2913888Y8869476D01*
X2911449Y8869070D01*
X2902864Y8866936D01*
X2900578Y8866174D01*
X2892399Y8862771D01*
X2890215Y8861653D01*
X2880614Y8855710D01*
X2873806Y8850020D01*
X2427071Y8403336D01*
X2423820Y8401151D01*
X2421737Y8400288D01*
X2411628Y8394090D01*
X2402535Y8386572D01*
X2394661Y8377732D01*
X2388108Y8367877D01*
X2383129Y8357158D01*
X2379726Y8345881D01*
X2377998Y8334146D01*
X2377998Y8322360D01*
X2379726Y8310625D01*
X2383129Y8299297D01*
X2388108Y8288629D01*
X2394661Y8278774D01*
X2401214Y8271408D01*
X2403195Y8268106D01*
X2403805Y8264296D01*
X2402941Y8260486D01*
X2400706Y8257336D01*
X2397455Y8255203D01*
X2393645Y8254492D01*
G37*

%LPC*%
G36*
X1658620Y8656320D02*
G01*
X1733550Y8656320D01*
X1729587Y8666175D01*
X1722170Y8679586D01*
X1713230Y8692032D01*
X1702917Y8703310D01*
X1691335Y8713317D01*
X1686153Y8716772D01*
X1683257Y8719769D01*
X1681835Y8723630D01*
X1681988Y8727744D01*
X1683816Y8731453D01*
X1687017Y8734145D01*
X1690979Y8735314D01*
X1700428Y8736177D01*
X1708912Y8738412D01*
X1716887Y8742172D01*
X1724101Y8747201D01*
X1730298Y8753398D01*
X1735328Y8760612D01*
X1739087Y8768588D01*
X1741322Y8777071D01*
X1742135Y8786317D01*
X1742135Y8818880D01*
X1658620Y8818880D01*
G37*
G36*
X5886450Y8656320D02*
G01*
X5961380Y8656320D01*
X5961380Y8818880D01*
X5877864Y8818880D01*
X5877864Y8786266D01*
X5878677Y8777071D01*
X5880912Y8768588D01*
X5884672Y8760612D01*
X5889701Y8753398D01*
X5895898Y8747201D01*
X5903112Y8742121D01*
X5911088Y8738412D01*
X5919571Y8736126D01*
X5929020Y8735314D01*
X5932982Y8734145D01*
X5936183Y8731453D01*
X5938012Y8727744D01*
X5938164Y8723579D01*
X5936742Y8719718D01*
X5933846Y8716772D01*
X5928664Y8713317D01*
X5917082Y8703310D01*
X5906770Y8692032D01*
X5897829Y8679586D01*
X5890412Y8666175D01*
G37*
G36*
X1658620Y8910320D02*
G01*
X1742135Y8910320D01*
X1742135Y8942882D01*
X1741322Y8952128D01*
X1739087Y8960612D01*
X1735328Y8968587D01*
X1730298Y8975801D01*
X1724101Y8981998D01*
X1716887Y8987028D01*
X1708912Y8990787D01*
X1700428Y8993022D01*
X1691182Y8993835D01*
X1658620Y8993835D01*
G37*
G36*
X5877864Y8910320D02*
G01*
X5961380Y8910320D01*
X5961380Y8993835D01*
X5928817Y8993835D01*
X5919571Y8993022D01*
X5911088Y8990736D01*
X5903112Y8987028D01*
X5895898Y8981998D01*
X5889701Y8975750D01*
X5884672Y8968536D01*
X5880912Y8960561D01*
X5878677Y8952077D01*
X5877864Y8942882D01*
G37*
G36*
X3242818Y11124844D02*
G01*
X3258108Y11125758D01*
X3273145Y11128502D01*
X3287725Y11133074D01*
X3301695Y11139322D01*
X3314801Y11147247D01*
X3326841Y11156696D01*
X3337661Y11167516D01*
X3347059Y11179556D01*
X3354984Y11192662D01*
X3361283Y11206581D01*
X3363061Y11212271D01*
X3365144Y11215979D01*
X3368548Y11218468D01*
X3372764Y11219383D01*
X3376929Y11218468D01*
X3380333Y11215979D01*
X3382416Y11212271D01*
X3384194Y11206581D01*
X3390493Y11192662D01*
X3398418Y11179556D01*
X3407816Y11167516D01*
X3418636Y11156696D01*
X3430676Y11147247D01*
X3443782Y11139322D01*
X3457752Y11133074D01*
X3472332Y11128502D01*
X3487369Y11125758D01*
X3502660Y11124844D01*
X3517950Y11125758D01*
X3532987Y11128502D01*
X3547567Y11133074D01*
X3561537Y11139322D01*
X3574643Y11147247D01*
X3586683Y11156696D01*
X3597503Y11167516D01*
X3606901Y11179556D01*
X3614826Y11192662D01*
X3618382Y11200485D01*
X3620566Y11203635D01*
X3623818Y11205718D01*
X3627628Y11206480D01*
X3631437Y11205718D01*
X3634689Y11203635D01*
X3636873Y11200485D01*
X3640429Y11192662D01*
X3648354Y11179556D01*
X3657752Y11167516D01*
X3668572Y11156696D01*
X3680612Y11147247D01*
X3693718Y11139322D01*
X3708146Y11132921D01*
X3708146Y11218976D01*
X3637432Y11218976D01*
X3633165Y11219942D01*
X3629660Y11222634D01*
X3627628Y11226546D01*
X3627475Y11230965D01*
X3628440Y11236248D01*
X3629355Y11251844D01*
X3629355Y11298783D01*
X3628440Y11314379D01*
X3627475Y11319662D01*
X3627628Y11324082D01*
X3629660Y11327993D01*
X3633165Y11330686D01*
X3637432Y11331651D01*
X3708146Y11331651D01*
X3708146Y11417706D01*
X3693718Y11411305D01*
X3680612Y11403380D01*
X3668572Y11393932D01*
X3657752Y11383111D01*
X3648354Y11371072D01*
X3640429Y11357965D01*
X3636873Y11350142D01*
X3634689Y11346992D01*
X3631437Y11344910D01*
X3627628Y11344148D01*
X3623818Y11344910D01*
X3620566Y11346992D01*
X3618382Y11350142D01*
X3614826Y11357965D01*
X3606901Y11371072D01*
X3597503Y11383111D01*
X3586683Y11393932D01*
X3574643Y11403380D01*
X3561537Y11411305D01*
X3547567Y11417554D01*
X3532987Y11422126D01*
X3517950Y11424869D01*
X3502660Y11425783D01*
X3487369Y11424869D01*
X3472332Y11422126D01*
X3457752Y11417554D01*
X3443782Y11411305D01*
X3430676Y11403380D01*
X3418636Y11393932D01*
X3407816Y11383111D01*
X3398418Y11371072D01*
X3390493Y11357965D01*
X3384194Y11344046D01*
X3382416Y11338356D01*
X3380333Y11334648D01*
X3376929Y11332108D01*
X3372764Y11331244D01*
X3368548Y11332108D01*
X3365144Y11334648D01*
X3363061Y11338356D01*
X3361283Y11344046D01*
X3354984Y11357965D01*
X3347059Y11371072D01*
X3337661Y11383111D01*
X3326841Y11393932D01*
X3314801Y11403380D01*
X3301695Y11411305D01*
X3287725Y11417554D01*
X3273145Y11422126D01*
X3258108Y11424869D01*
X3242818Y11425783D01*
X3227527Y11424869D01*
X3212490Y11422126D01*
X3197910Y11417554D01*
X3183940Y11411305D01*
X3170834Y11403380D01*
X3158794Y11393932D01*
X3147974Y11383111D01*
X3138576Y11371072D01*
X3130651Y11357965D01*
X3124352Y11344046D01*
X3119831Y11329416D01*
X3117037Y11314379D01*
X3116122Y11298783D01*
X3116122Y11251844D01*
X3117037Y11236248D01*
X3119831Y11221212D01*
X3124352Y11206581D01*
X3130651Y11192662D01*
X3138576Y11179556D01*
X3147974Y11167516D01*
X3158794Y11156696D01*
X3170834Y11147247D01*
X3183940Y11139322D01*
X3197910Y11133074D01*
X3212490Y11128502D01*
X3227527Y11125758D01*
G37*
G36*
X4262628Y11124844D02*
G01*
X4277918Y11125758D01*
X4292955Y11128502D01*
X4307535Y11133074D01*
X4321505Y11139322D01*
X4334611Y11147247D01*
X4346651Y11156696D01*
X4357471Y11167516D01*
X4366869Y11179556D01*
X4374794Y11192662D01*
X4381093Y11206581D01*
X4385614Y11221212D01*
X4388408Y11236248D01*
X4389323Y11251844D01*
X4389323Y11298783D01*
X4388408Y11314379D01*
X4385614Y11329416D01*
X4381093Y11344046D01*
X4374794Y11357965D01*
X4366869Y11371072D01*
X4357471Y11383111D01*
X4346651Y11393932D01*
X4334611Y11403380D01*
X4321505Y11411305D01*
X4307535Y11417554D01*
X4292955Y11422126D01*
X4277918Y11424869D01*
X4262628Y11425783D01*
X4247337Y11424869D01*
X4232300Y11422126D01*
X4217720Y11417554D01*
X4203750Y11411305D01*
X4190644Y11403380D01*
X4178604Y11393932D01*
X4167784Y11383111D01*
X4158386Y11371072D01*
X4150461Y11357965D01*
X4144162Y11344046D01*
X4142333Y11338102D01*
X4140200Y11334394D01*
X4136796Y11331854D01*
X4132630Y11330940D01*
X4128465Y11331854D01*
X4125010Y11334394D01*
X4122928Y11338102D01*
X4120997Y11344300D01*
X4114698Y11358219D01*
X4106773Y11371326D01*
X4097375Y11383365D01*
X4086555Y11394186D01*
X4074515Y11403634D01*
X4061409Y11411559D01*
X4047439Y11417808D01*
X4032859Y11422380D01*
X4017822Y11425123D01*
X4002532Y11426037D01*
X3987241Y11425123D01*
X3972204Y11422380D01*
X3957624Y11417808D01*
X3943654Y11411559D01*
X3930548Y11403634D01*
X3918508Y11394186D01*
X3907688Y11383365D01*
X3898290Y11371326D01*
X3890365Y11358219D01*
X3886758Y11350294D01*
X3884523Y11347145D01*
X3881323Y11345011D01*
X3877513Y11344300D01*
X3873703Y11345011D01*
X3870451Y11347145D01*
X3868216Y11350294D01*
X3864762Y11357965D01*
X3856837Y11371072D01*
X3847439Y11383111D01*
X3836619Y11393932D01*
X3824579Y11403380D01*
X3811473Y11411305D01*
X3797046Y11417706D01*
X3797046Y11331651D01*
X3867708Y11331651D01*
X3872026Y11330686D01*
X3875481Y11327993D01*
X3877513Y11324082D01*
X3877665Y11319662D01*
X3876751Y11314633D01*
X3875836Y11299037D01*
X3875836Y11252098D01*
X3876751Y11236502D01*
X3877767Y11230965D01*
X3877614Y11226546D01*
X3875582Y11222634D01*
X3872077Y11219942D01*
X3867810Y11218976D01*
X3797046Y11218976D01*
X3797046Y11132921D01*
X3811473Y11139322D01*
X3824579Y11147247D01*
X3836619Y11156696D01*
X3847439Y11167516D01*
X3856837Y11179556D01*
X3864762Y11192662D01*
X3868369Y11200587D01*
X3870604Y11203736D01*
X3873804Y11205870D01*
X3877614Y11206581D01*
X3881424Y11205870D01*
X3884676Y11203736D01*
X3886911Y11200587D01*
X3890365Y11192916D01*
X3898290Y11179810D01*
X3907688Y11167770D01*
X3918508Y11156950D01*
X3930548Y11147501D01*
X3943654Y11139576D01*
X3957624Y11133328D01*
X3972204Y11128756D01*
X3987241Y11126012D01*
X4002532Y11125098D01*
X4017822Y11126012D01*
X4032859Y11128756D01*
X4047439Y11133328D01*
X4061409Y11139576D01*
X4074515Y11147501D01*
X4086555Y11156950D01*
X4097375Y11167770D01*
X4106773Y11179810D01*
X4114698Y11192916D01*
X4120997Y11206835D01*
X4122826Y11212779D01*
X4124960Y11216487D01*
X4128363Y11219027D01*
X4132529Y11219942D01*
X4136694Y11219027D01*
X4140149Y11216487D01*
X4142232Y11212779D01*
X4144162Y11206581D01*
X4150461Y11192662D01*
X4158386Y11179556D01*
X4167784Y11167516D01*
X4178604Y11156696D01*
X4190644Y11147247D01*
X4203750Y11139322D01*
X4217720Y11133074D01*
X4232300Y11128502D01*
X4247337Y11125758D01*
G37*

%LPD*%
G36*
X1496568Y4877308D02*
G01*
X1492656Y4878070D01*
X1489405Y4880305D01*
X1487170Y4883556D01*
X1486408Y4887468D01*
X1486408Y6502196D01*
X1487322Y6506413D01*
X1489913Y6509867D01*
X1493723Y6511950D01*
X1498092Y6512255D01*
X1502105Y6510680D01*
X1505153Y6507581D01*
X1507896Y6503263D01*
X1517548Y6491376D01*
X1528521Y6480708D01*
X1540713Y6471412D01*
X1553870Y6463639D01*
X1567891Y6457442D01*
X1582521Y6452971D01*
X1597609Y6450279D01*
X1612900Y6449364D01*
X1628190Y6450279D01*
X1643278Y6452971D01*
X1657908Y6457442D01*
X1671929Y6463639D01*
X1685086Y6471412D01*
X1697278Y6480708D01*
X1708251Y6491376D01*
X1717903Y6503263D01*
X1722577Y6510629D01*
X1724812Y6513169D01*
X1727809Y6514846D01*
X1731162Y6515404D01*
X4296765Y6515404D01*
X4300220Y6514795D01*
X4313732Y6506565D01*
X4324604Y6501942D01*
X4336034Y6498945D01*
X4347768Y6497675D01*
X4359605Y6498082D01*
X4371238Y6500266D01*
X4382414Y6504076D01*
X4392930Y6509461D01*
X4398568Y6513474D01*
X4401362Y6514896D01*
X4404461Y6515404D01*
X5888837Y6515404D01*
X5892190Y6514846D01*
X5895136Y6513169D01*
X5897422Y6510629D01*
X5902096Y6503263D01*
X5911748Y6491376D01*
X5922721Y6480708D01*
X5934913Y6471412D01*
X5948070Y6463639D01*
X5962091Y6457442D01*
X5976721Y6452971D01*
X5991809Y6450279D01*
X6007100Y6449364D01*
X6022390Y6450279D01*
X6037478Y6452971D01*
X6052108Y6457442D01*
X6066129Y6463639D01*
X6079286Y6471412D01*
X6091478Y6480708D01*
X6102451Y6491376D01*
X6112103Y6503263D01*
X6115862Y6509207D01*
X6118910Y6512306D01*
X6122924Y6513830D01*
X6127292Y6513525D01*
X6131102Y6511493D01*
X6133693Y6507988D01*
X6134608Y6503771D01*
X6134608Y4887468D01*
X6133846Y4883556D01*
X6131610Y4880305D01*
X6128359Y4878070D01*
X6124448Y4877308D01*
G37*

%LPC*%
G36*
X3492754Y5084978D02*
G01*
X3508044Y5085892D01*
X3523081Y5088636D01*
X3537661Y5093208D01*
X3551631Y5099456D01*
X3564737Y5107381D01*
X3576777Y5116830D01*
X3587597Y5127650D01*
X3596995Y5139690D01*
X3604920Y5152796D01*
X3611219Y5166715D01*
X3612997Y5172506D01*
X3615131Y5176215D01*
X3618534Y5178755D01*
X3622700Y5179669D01*
X3626865Y5178755D01*
X3630320Y5176215D01*
X3632403Y5172506D01*
X3634130Y5166969D01*
X3640429Y5153050D01*
X3648354Y5139944D01*
X3657752Y5127904D01*
X3668572Y5117084D01*
X3680612Y5107635D01*
X3693718Y5099710D01*
X3708146Y5093309D01*
X3708146Y5179364D01*
X3627577Y5179364D01*
X3623259Y5180330D01*
X3619804Y5183022D01*
X3617772Y5186934D01*
X3617620Y5191353D01*
X3618534Y5196382D01*
X3619449Y5211978D01*
X3619449Y5258917D01*
X3618534Y5274513D01*
X3617518Y5280050D01*
X3617671Y5284470D01*
X3619703Y5288381D01*
X3623208Y5291074D01*
X3627475Y5292039D01*
X3708146Y5292039D01*
X3708146Y5378094D01*
X3693718Y5371693D01*
X3680612Y5363768D01*
X3668572Y5354320D01*
X3657752Y5343499D01*
X3648354Y5331460D01*
X3640429Y5318353D01*
X3634130Y5304434D01*
X3632352Y5298643D01*
X3630218Y5294934D01*
X3626815Y5292394D01*
X3622649Y5291480D01*
X3618484Y5292394D01*
X3615029Y5294934D01*
X3612946Y5298643D01*
X3611219Y5304180D01*
X3604920Y5318099D01*
X3596995Y5331206D01*
X3587597Y5343245D01*
X3576777Y5354066D01*
X3564737Y5363514D01*
X3551631Y5371439D01*
X3537661Y5377688D01*
X3523081Y5382260D01*
X3508044Y5385003D01*
X3492754Y5385917D01*
X3477463Y5385003D01*
X3462426Y5382260D01*
X3447846Y5377688D01*
X3433876Y5371439D01*
X3420770Y5363514D01*
X3408730Y5354066D01*
X3397910Y5343245D01*
X3388512Y5331206D01*
X3380587Y5318099D01*
X3376980Y5310124D01*
X3374745Y5306974D01*
X3371494Y5304891D01*
X3367735Y5304129D01*
X3363925Y5304891D01*
X3360674Y5306974D01*
X3358438Y5310124D01*
X3354730Y5318353D01*
X3346805Y5331460D01*
X3337407Y5343499D01*
X3326587Y5354320D01*
X3314547Y5363768D01*
X3301441Y5371693D01*
X3287471Y5377942D01*
X3272891Y5382514D01*
X3257854Y5385257D01*
X3242564Y5386171D01*
X3227273Y5385257D01*
X3212236Y5382514D01*
X3197656Y5377942D01*
X3183686Y5371693D01*
X3170580Y5363768D01*
X3158540Y5354320D01*
X3147720Y5343499D01*
X3138322Y5331460D01*
X3130397Y5318353D01*
X3124098Y5304434D01*
X3119577Y5289804D01*
X3116783Y5274767D01*
X3115868Y5259171D01*
X3115868Y5212232D01*
X3116783Y5196636D01*
X3119577Y5181600D01*
X3124098Y5166969D01*
X3130397Y5153050D01*
X3138322Y5139944D01*
X3147720Y5127904D01*
X3158540Y5117084D01*
X3170580Y5107635D01*
X3183686Y5099710D01*
X3197656Y5093462D01*
X3212236Y5088890D01*
X3227273Y5086146D01*
X3242564Y5085232D01*
X3257854Y5086146D01*
X3272891Y5088890D01*
X3287471Y5093462D01*
X3301441Y5099710D01*
X3314547Y5107635D01*
X3326587Y5117084D01*
X3337407Y5127904D01*
X3346805Y5139944D01*
X3354730Y5153050D01*
X3358337Y5161026D01*
X3360572Y5164175D01*
X3363823Y5166258D01*
X3367582Y5167020D01*
X3371392Y5166258D01*
X3374644Y5164175D01*
X3376879Y5161026D01*
X3380587Y5152796D01*
X3388512Y5139690D01*
X3397910Y5127650D01*
X3408730Y5116830D01*
X3420770Y5107381D01*
X3433876Y5099456D01*
X3447846Y5093208D01*
X3462426Y5088636D01*
X3477463Y5085892D01*
G37*
G36*
X3797046Y5093309D02*
G01*
X3811473Y5099710D01*
X3824579Y5107635D01*
X3836619Y5117084D01*
X3847439Y5127904D01*
X3856837Y5139944D01*
X3864762Y5153050D01*
X3870553Y5165801D01*
X3872737Y5168950D01*
X3875989Y5171084D01*
X3879799Y5171795D01*
X3883609Y5171084D01*
X3886809Y5168950D01*
X3889044Y5165801D01*
X3890365Y5162956D01*
X3898290Y5149850D01*
X3907688Y5137810D01*
X3918508Y5126990D01*
X3930548Y5117541D01*
X3943654Y5109616D01*
X3957624Y5103368D01*
X3972204Y5098796D01*
X3987241Y5096052D01*
X4002532Y5095138D01*
X4017822Y5096052D01*
X4032859Y5098796D01*
X4047439Y5103368D01*
X4061409Y5109616D01*
X4074515Y5117541D01*
X4086555Y5126990D01*
X4097375Y5137810D01*
X4106773Y5149850D01*
X4114698Y5162956D01*
X4118254Y5170779D01*
X4120438Y5173929D01*
X4123690Y5176012D01*
X4127500Y5176774D01*
X4131310Y5176012D01*
X4134561Y5173929D01*
X4136745Y5170779D01*
X4140301Y5162956D01*
X4148226Y5149850D01*
X4157624Y5137810D01*
X4168444Y5126990D01*
X4180484Y5117541D01*
X4193590Y5109616D01*
X4207560Y5103368D01*
X4222140Y5098796D01*
X4237177Y5096052D01*
X4252468Y5095138D01*
X4267758Y5096052D01*
X4282795Y5098796D01*
X4297375Y5103368D01*
X4311345Y5109616D01*
X4324451Y5117541D01*
X4336491Y5126990D01*
X4347311Y5137810D01*
X4356709Y5149850D01*
X4364634Y5162956D01*
X4370933Y5176875D01*
X4375454Y5191506D01*
X4378248Y5206542D01*
X4379163Y5222138D01*
X4379163Y5269077D01*
X4378248Y5284673D01*
X4375454Y5299710D01*
X4370933Y5314340D01*
X4364634Y5328259D01*
X4356709Y5341366D01*
X4347311Y5353405D01*
X4336491Y5364226D01*
X4324451Y5373674D01*
X4311345Y5381599D01*
X4297375Y5387848D01*
X4282795Y5392420D01*
X4267758Y5395163D01*
X4252468Y5396077D01*
X4237177Y5395163D01*
X4222140Y5392420D01*
X4207560Y5387848D01*
X4193590Y5381599D01*
X4180484Y5373674D01*
X4168444Y5364226D01*
X4157624Y5353405D01*
X4148226Y5341366D01*
X4140301Y5328259D01*
X4136745Y5320436D01*
X4134561Y5317286D01*
X4131310Y5315204D01*
X4127500Y5314442D01*
X4123690Y5315204D01*
X4120438Y5317286D01*
X4118254Y5320436D01*
X4114698Y5328259D01*
X4106773Y5341366D01*
X4097375Y5353405D01*
X4086555Y5364226D01*
X4074515Y5373674D01*
X4061409Y5381599D01*
X4047439Y5387848D01*
X4032859Y5392420D01*
X4017822Y5395163D01*
X4002532Y5396077D01*
X3987241Y5395163D01*
X3972204Y5392420D01*
X3957624Y5387848D01*
X3943654Y5381599D01*
X3930548Y5373674D01*
X3918508Y5364226D01*
X3907688Y5353405D01*
X3898290Y5341366D01*
X3890365Y5328259D01*
X3884625Y5315508D01*
X3882390Y5312359D01*
X3879138Y5310225D01*
X3875328Y5309514D01*
X3871518Y5310225D01*
X3868318Y5312359D01*
X3866083Y5315508D01*
X3864762Y5318353D01*
X3856837Y5331460D01*
X3847439Y5343499D01*
X3836619Y5354320D01*
X3824579Y5363768D01*
X3811473Y5371693D01*
X3797046Y5378094D01*
X3797046Y5292039D01*
X3866438Y5292039D01*
X3870451Y5291226D01*
X3873804Y5288838D01*
X3875989Y5285333D01*
X3876548Y5281269D01*
X3875836Y5269077D01*
X3875836Y5222138D01*
X3876751Y5206542D01*
X3879545Y5191353D01*
X3879392Y5186934D01*
X3877360Y5183022D01*
X3873855Y5180330D01*
X3869537Y5179364D01*
X3797046Y5179364D01*
G37*

%LPD*%
D10*
X2458745Y8328251D02*
G01*
X2925318Y8794823D01*
X4473193Y8794823D01*
X4640275Y8738689D02*
G01*
X4615434Y8713848D01*
X3957700Y8713848D01*
X4624324Y8611892D02*
G01*
X3664229Y8611892D01*
X3604768Y8671354D01*
D11*
X4350740Y6578597D02*
G01*
X1612900Y6578597D01*
X6007100Y6578597D02*
G01*
X4350740Y6578597D01*
X6007100Y7848597D02*
G01*
X1612900Y7848597D01*
X1612900Y8102597D02*
G01*
X3303904Y8102597D01*
X3442258Y8240951D01*
X4279976Y6832597D02*
G01*
X6007100Y6832597D01*
X1612900Y6832597D02*
G01*
X4279976Y6832597D01*
D12*
X3752595Y8945648D02*
G01*
X3752595Y11275311D01*
X2474340Y8603612D02*
G01*
X2816377Y8945648D01*
X3752595Y8945648D01*
X5828284Y8864597D02*
G01*
X5747232Y8945648D01*
X3752595Y8945648D01*
X6007100Y8864597D02*
G01*
X5828284Y8864597D01*
X1612900Y8864597D02*
G01*
X1791715Y8864597D01*
X2474340Y8603612D02*
G01*
X2052700Y8603612D01*
X1791715Y8864597D01*
X1612900Y7086597D02*
G01*
X6007100Y7086597D01*
D10*
X2928111Y8178975D02*
G01*
X3105734Y8356597D01*
X6007100Y8356597D01*
X1612900Y8356597D02*
G01*
X1790522Y8178975D01*
X2928111Y8178975D01*
D11*
X6007100Y7594597D02*
G01*
X1612900Y7594597D01*
D13*
G01*
X4262627Y11275313D03*
G01*
X4002531Y11275568D03*
G01*
X3752595Y11275313D03*
G01*
X3502659Y11275313D03*
G01*
X3242818Y11275313D03*
G01*
X4252468Y5245607D03*
G01*
X4002531Y5245607D03*
G01*
X3752595Y5235702D03*
G01*
X3492754Y5235447D03*
G01*
X3242563Y5235702D03*
D14*
G01*
X1612900Y6578600D03*
G01*
X1612900Y6832600D03*
G01*
X1612900Y7086600D03*
G01*
X1612900Y7340600D03*
G01*
X1612900Y7594600D03*
G01*
X1612900Y7848600D03*
G01*
X1612900Y8102600D03*
G01*
X1612900Y8356600D03*
G01*
X1612900Y8610600D03*
D15*
G01*
X1612900Y8864600D03*
D14*
G01*
X6007100Y6578574D03*
G01*
X6007100Y6832574D03*
G01*
X6007100Y7086574D03*
G01*
X6007100Y7340574D03*
G01*
X6007100Y7594574D03*
G01*
X6007100Y7848574D03*
G01*
X6007100Y8102574D03*
G01*
X6007100Y8356574D03*
G01*
X6007100Y8610574D03*
D15*
G01*
X6007100Y8864574D03*
D16*
G01*
X4473193Y8794826D03*
G01*
X2458745Y8328253D03*
G01*
X3957700Y8713851D03*
G01*
X4640275Y8738692D03*
G01*
X3604768Y8671356D03*
G01*
X4624324Y8611895D03*
G01*
X4350740Y6578600D03*
G01*
X3442258Y8240953D03*
G01*
X4279976Y6832600D03*
D12*
G01*
X2474340Y8603614D03*
D16*
G01*
X2928111Y8178977D03*
M02*
