G04 Layer: TopPasteMaskLayer*
G04 EasyEDA v6.5.22, 2023-04-22 10:10:04*
G04 1b96b35224f94a88acdb7b821174fc80,0997c0c323a540828c61b468e30a80a1,10*
G04 Gerber Generator version 0.2*
G04 Scale: 100 percent, Rotated: No, Reflected: No *
G04 Dimensions in millimeters *
G04 leading zeros omitted , absolute positions ,4 integer and 5 decimal *
%FSLAX45Y45*%
%MOMM*%

%AMMACRO1*21,1,$1,$2,0,0,$3*%
%ADD10MACRO1,1.296X1.7575X0.0000*%
%ADD11R,1.2960X1.7575*%
%ADD12O,0.6020054X1.9709892*%

%LPD*%
G36*
X4446168Y5310022D02*
G01*
X4436160Y5300014D01*
X4436160Y5199227D01*
X4446168Y5189270D01*
X4596231Y5189270D01*
X4606239Y5199227D01*
X4606239Y5300014D01*
X4596231Y5310022D01*
X4560112Y5310022D01*
X4550105Y5300014D01*
X4550105Y5278932D01*
X4540097Y5268925D01*
X4502302Y5268925D01*
X4492294Y5278932D01*
X4492294Y5300014D01*
X4482287Y5310022D01*
G37*
G36*
X4446168Y5605729D02*
G01*
X4436160Y5595772D01*
X4436160Y5494985D01*
X4446168Y5484977D01*
X4482287Y5484977D01*
X4492294Y5494985D01*
X4492294Y5516067D01*
X4502302Y5526074D01*
X4540097Y5526074D01*
X4550105Y5516067D01*
X4550105Y5494985D01*
X4560112Y5484977D01*
X4596231Y5484977D01*
X4606239Y5494985D01*
X4606239Y5595772D01*
X4596231Y5605729D01*
G37*
G36*
X3037890Y8326018D02*
G01*
X3032912Y8320989D01*
X3032912Y8193024D01*
X3037890Y8187994D01*
X3152902Y8187994D01*
X3157880Y8193024D01*
X3157423Y8234984D01*
X3113379Y8234984D01*
X3113379Y8279993D01*
X3158388Y8279993D01*
X3157880Y8320989D01*
X3152902Y8326018D01*
G37*
G36*
X3252876Y8326018D02*
G01*
X3247898Y8320989D01*
X3248406Y8279993D01*
X3292398Y8279993D01*
X3292398Y8234984D01*
X3247898Y8234984D01*
X3247898Y8193024D01*
X3252876Y8187994D01*
X3367887Y8187994D01*
X3372916Y8193024D01*
X3372916Y8320989D01*
X3367887Y8326018D01*
G37*
G36*
X2312924Y9247987D02*
G01*
X2307894Y9243009D01*
X2307894Y9127998D01*
X2312924Y9123019D01*
X2354884Y9123476D01*
X2354884Y9167520D01*
X2399893Y9167520D01*
X2399893Y9122511D01*
X2440889Y9123019D01*
X2445918Y9127998D01*
X2445918Y9243009D01*
X2440889Y9247987D01*
G37*
G36*
X2312924Y9033002D02*
G01*
X2307894Y9028023D01*
X2307894Y8913012D01*
X2312924Y8907983D01*
X2440889Y8907983D01*
X2445918Y8913012D01*
X2445918Y9028023D01*
X2440889Y9033002D01*
X2399893Y9032494D01*
X2399893Y8988501D01*
X2354884Y8988501D01*
X2354884Y9033002D01*
G37*
G36*
X3925468Y11079429D02*
G01*
X3915460Y11069472D01*
X3915460Y10968685D01*
X3925468Y10958677D01*
X3961587Y10958677D01*
X3971594Y10968685D01*
X3971594Y10989767D01*
X3981602Y10999774D01*
X4019397Y10999774D01*
X4029405Y10989767D01*
X4029405Y10968685D01*
X4039412Y10958677D01*
X4075531Y10958677D01*
X4085539Y10968685D01*
X4085539Y11069472D01*
X4075531Y11079429D01*
G37*
G36*
X3925468Y10783722D02*
G01*
X3915460Y10773714D01*
X3915460Y10672927D01*
X3925468Y10662970D01*
X4075531Y10662970D01*
X4085539Y10672927D01*
X4085539Y10773714D01*
X4075531Y10783722D01*
X4039412Y10783722D01*
X4029405Y10773714D01*
X4029405Y10752632D01*
X4019397Y10742625D01*
X3981602Y10742625D01*
X3971594Y10752632D01*
X3971594Y10773714D01*
X3961587Y10783722D01*
G37*
G36*
X4446168Y11333429D02*
G01*
X4436160Y11323472D01*
X4436160Y11222685D01*
X4446168Y11212677D01*
X4482287Y11212677D01*
X4492294Y11222685D01*
X4492294Y11243767D01*
X4502302Y11253774D01*
X4540097Y11253774D01*
X4550105Y11243767D01*
X4550105Y11222685D01*
X4560112Y11212677D01*
X4596231Y11212677D01*
X4606239Y11222685D01*
X4606239Y11323472D01*
X4596231Y11333429D01*
G37*
G36*
X4446168Y11037722D02*
G01*
X4436160Y11027714D01*
X4436160Y10926927D01*
X4446168Y10916970D01*
X4596231Y10916970D01*
X4606239Y10926927D01*
X4606239Y11027714D01*
X4596231Y11037722D01*
X4560112Y11037722D01*
X4550105Y11027714D01*
X4550105Y11006632D01*
X4540097Y10996625D01*
X4502302Y10996625D01*
X4492294Y11006632D01*
X4492294Y11027714D01*
X4482287Y11037722D01*
G37*
G36*
X3925468Y5589422D02*
G01*
X3915460Y5579414D01*
X3915460Y5478627D01*
X3925468Y5468670D01*
X4075531Y5468670D01*
X4085539Y5478627D01*
X4085539Y5579414D01*
X4075531Y5589422D01*
X4039412Y5589422D01*
X4029405Y5579414D01*
X4029405Y5558332D01*
X4019397Y5548325D01*
X3981602Y5548325D01*
X3971594Y5558332D01*
X3971594Y5579414D01*
X3961587Y5589422D01*
G37*
G36*
X3925468Y5885129D02*
G01*
X3915460Y5875172D01*
X3915460Y5774385D01*
X3925468Y5764377D01*
X3961587Y5764377D01*
X3971594Y5774385D01*
X3971594Y5795467D01*
X3981602Y5805474D01*
X4019397Y5805474D01*
X4029405Y5795467D01*
X4029405Y5774385D01*
X4039412Y5764377D01*
X4075531Y5764377D01*
X4085539Y5774385D01*
X4085539Y5875172D01*
X4075531Y5885129D01*
G37*
G36*
X3417468Y5589422D02*
G01*
X3407460Y5579414D01*
X3407460Y5478627D01*
X3417468Y5468670D01*
X3567531Y5468670D01*
X3577539Y5478627D01*
X3577539Y5579414D01*
X3567531Y5589422D01*
X3531412Y5589422D01*
X3521405Y5579414D01*
X3521405Y5558332D01*
X3511397Y5548325D01*
X3473602Y5548325D01*
X3463594Y5558332D01*
X3463594Y5579414D01*
X3453587Y5589422D01*
G37*
G36*
X3417468Y5885129D02*
G01*
X3407460Y5875172D01*
X3407460Y5774385D01*
X3417468Y5764377D01*
X3453587Y5764377D01*
X3463594Y5774385D01*
X3463594Y5795467D01*
X3473602Y5805474D01*
X3511397Y5805474D01*
X3521405Y5795467D01*
X3521405Y5774385D01*
X3531412Y5764377D01*
X3567531Y5764377D01*
X3577539Y5774385D01*
X3577539Y5875172D01*
X3567531Y5885129D01*
G37*
G36*
X2896768Y5297322D02*
G01*
X2886760Y5287314D01*
X2886760Y5186527D01*
X2896768Y5176570D01*
X3046831Y5176570D01*
X3056839Y5186527D01*
X3056839Y5287314D01*
X3046831Y5297322D01*
X3010712Y5297322D01*
X3000705Y5287314D01*
X3000705Y5266232D01*
X2990697Y5256225D01*
X2952902Y5256225D01*
X2942894Y5266232D01*
X2942894Y5287314D01*
X2932887Y5297322D01*
G37*
G36*
X2896768Y5593029D02*
G01*
X2886760Y5583072D01*
X2886760Y5482285D01*
X2896768Y5472277D01*
X2932887Y5472277D01*
X2942894Y5482285D01*
X2942894Y5503367D01*
X2952902Y5513374D01*
X2990697Y5513374D01*
X3000705Y5503367D01*
X3000705Y5482285D01*
X3010712Y5472277D01*
X3046831Y5472277D01*
X3056839Y5482285D01*
X3056839Y5583072D01*
X3046831Y5593029D01*
G37*
G36*
X3430168Y11079429D02*
G01*
X3420160Y11069472D01*
X3420160Y10968685D01*
X3430168Y10958677D01*
X3466287Y10958677D01*
X3476294Y10968685D01*
X3476294Y10989767D01*
X3486302Y10999774D01*
X3524097Y10999774D01*
X3534105Y10989767D01*
X3534105Y10968685D01*
X3544112Y10958677D01*
X3580231Y10958677D01*
X3590239Y10968685D01*
X3590239Y11069472D01*
X3580231Y11079429D01*
G37*
G36*
X3430168Y10783722D02*
G01*
X3420160Y10773714D01*
X3420160Y10672927D01*
X3430168Y10662970D01*
X3580231Y10662970D01*
X3590239Y10672927D01*
X3590239Y10773714D01*
X3580231Y10783722D01*
X3544112Y10783722D01*
X3534105Y10773714D01*
X3534105Y10752632D01*
X3524097Y10742625D01*
X3486302Y10742625D01*
X3476294Y10752632D01*
X3476294Y10773714D01*
X3466287Y10783722D01*
G37*
G36*
X2896768Y11333429D02*
G01*
X2886760Y11323472D01*
X2886760Y11222685D01*
X2896768Y11212677D01*
X2932887Y11212677D01*
X2942894Y11222685D01*
X2942894Y11243767D01*
X2952902Y11253774D01*
X2990697Y11253774D01*
X3000705Y11243767D01*
X3000705Y11222685D01*
X3010712Y11212677D01*
X3046831Y11212677D01*
X3056839Y11222685D01*
X3056839Y11323472D01*
X3046831Y11333429D01*
G37*
G36*
X2896768Y11037722D02*
G01*
X2886760Y11027714D01*
X2886760Y10926927D01*
X2896768Y10916970D01*
X3046831Y10916970D01*
X3056839Y10926927D01*
X3056839Y11027714D01*
X3046831Y11037722D01*
X3010712Y11037722D01*
X3000705Y11027714D01*
X3000705Y11006632D01*
X2990697Y10996625D01*
X2952902Y10996625D01*
X2942894Y11006632D01*
X2942894Y11027714D01*
X2932887Y11037722D01*
G37*
D10*
G01*
X2641600Y8848375D03*
D11*
G01*
X2641600Y9185630D03*
D12*
G01*
X3327400Y8489442D03*
G01*
X3454400Y8489442D03*
G01*
X3581400Y8489442D03*
G01*
X3708400Y8489442D03*
G01*
X3835400Y8489442D03*
G01*
X3962400Y8489442D03*
G01*
X4089400Y8489442D03*
G01*
X4216400Y8489442D03*
G01*
X3327400Y9036558D03*
G01*
X3454400Y9036558D03*
G01*
X3581400Y9036558D03*
G01*
X3708400Y9036558D03*
G01*
X3835400Y9036558D03*
G01*
X3962400Y9036558D03*
G01*
X4089400Y9036558D03*
G01*
X4216400Y9036558D03*
M02*
