G04 Layer: BottomSilkscreenLayer*
G04 EasyEDA v6.5.23, 2023-06-06 19:11:06*
G04 440996f75ca54165bcb2688da9f4019d,0997c0c323a540828c61b468e30a80a1,10*
G04 Gerber Generator version 0.2*
G04 Scale: 100 percent, Rotated: No, Reflected: No *
G04 Dimensions in millimeters *
G04 leading zeros omitted , absolute positions ,4 integer and 5 decimal *
%FSLAX45Y45*%
%MOMM*%

%ADD10C,0.1500*%
%ADD11C,0.1700*%
%ADD12C,0.1200*%

%LPD*%
G36*
X1515872Y5645505D02*
G01*
X1515465Y5643067D01*
X1515313Y5637225D01*
X1515668Y5633466D01*
X1516380Y5631434D01*
X1517650Y5629046D01*
X1522577Y5622290D01*
X1531772Y5611622D01*
X1621078Y5515051D01*
X1620376Y5473242D01*
X1634337Y5473242D01*
X1634489Y5490718D01*
X1634845Y5494731D01*
X1635404Y5497423D01*
X1636115Y5498439D01*
X1639976Y5495747D01*
X1645361Y5489498D01*
X1650136Y5482488D01*
X1652219Y5477408D01*
X1651863Y5475274D01*
X1650593Y5474004D01*
X1647901Y5473395D01*
X1620376Y5473242D01*
X1620164Y5460644D01*
X1646123Y5460492D01*
X1651304Y5459984D01*
X1653216Y5459069D01*
X1668068Y5459069D01*
X1668272Y5459933D01*
X1668780Y5460238D01*
X1669846Y5459882D01*
X1673758Y5456834D01*
X1680768Y5450078D01*
X1691589Y5438851D01*
X1760887Y5364378D01*
X1779168Y5364378D01*
X1782267Y5368391D01*
X1802942Y5392166D01*
X1833219Y5425795D01*
X1854504Y5448808D01*
X1857959Y5452211D01*
X1858264Y5451500D01*
X1858213Y5446776D01*
X1854911Y5409184D01*
X1849170Y5337962D01*
X1846580Y5309514D01*
X1844649Y5294020D01*
X1843684Y5294477D01*
X1838096Y5299608D01*
X1828850Y5308955D01*
X1805381Y5333949D01*
X1785112Y5356555D01*
X1779930Y5363057D01*
X1779168Y5364378D01*
X1760887Y5364378D01*
X1761642Y5363565D01*
X1714601Y5311343D01*
X1695094Y5290007D01*
X1688287Y5282895D01*
X1684426Y5279339D01*
X1683918Y5279136D01*
X1668068Y5459069D01*
X1653216Y5459069D01*
X1653641Y5458866D01*
X1654200Y5456936D01*
X1657096Y5421477D01*
X1668221Y5292750D01*
X1669999Y5269280D01*
X1669948Y5267045D01*
X1668932Y5264200D01*
X1666493Y5260136D01*
X1660337Y5252059D01*
X1686204Y5252059D01*
X1686306Y5255463D01*
X1686560Y5257038D01*
X1688185Y5260797D01*
X1689607Y5263235D01*
X1694281Y5269636D01*
X1701749Y5278678D01*
X1727504Y5307990D01*
X1756460Y5340146D01*
X1765554Y5349900D01*
X1769160Y5353456D01*
X1770176Y5352694D01*
X1780844Y5341924D01*
X1844243Y5274716D01*
X1838045Y5200142D01*
X1723898Y5200142D01*
X1722526Y5209540D01*
X1721154Y5216042D01*
X1718868Y5222189D01*
X1715770Y5227828D01*
X1711909Y5232908D01*
X1707235Y5237480D01*
X1701901Y5241391D01*
X1695907Y5244693D01*
X1689303Y5247284D01*
X1687626Y5248148D01*
X1686610Y5249672D01*
X1686204Y5252059D01*
X1660337Y5252059D01*
X1645818Y5234940D01*
X1578203Y5158892D01*
X1555851Y5133289D01*
X1549908Y5125923D01*
X1546656Y5121148D01*
X1545844Y5119522D01*
X1545488Y5118252D01*
X1545488Y5117287D01*
X1546301Y5115763D01*
X1549044Y5113020D01*
X1550873Y5111902D01*
X1552803Y5113629D01*
X1564538Y5126177D01*
X1584045Y5147614D01*
X1639112Y5209133D01*
X1640621Y5202174D01*
X1660855Y5202174D01*
X1661871Y5210556D01*
X1663141Y5214112D01*
X1664868Y5217464D01*
X1666849Y5220258D01*
X1668780Y5222138D01*
X1673301Y5224678D01*
X1677924Y5226151D01*
X1682546Y5226507D01*
X1687017Y5225897D01*
X1691182Y5224272D01*
X1694891Y5221732D01*
X1698091Y5218226D01*
X1700631Y5213858D01*
X1702257Y5209133D01*
X1702866Y5204460D01*
X1702612Y5200040D01*
X1701495Y5195874D01*
X1699666Y5192064D01*
X1697177Y5188762D01*
X1694129Y5186019D01*
X1690573Y5183936D01*
X1686661Y5182565D01*
X1682445Y5182108D01*
X1678025Y5182565D01*
X1673453Y5184038D01*
X1666798Y5188508D01*
X1662531Y5194655D01*
X1660855Y5202174D01*
X1640621Y5202174D01*
X1643583Y5190337D01*
X1646428Y5182971D01*
X1649780Y5176977D01*
X1653489Y5172557D01*
X1658112Y5168849D01*
X1663141Y5165953D01*
X1668525Y5163769D01*
X1674114Y5162346D01*
X1679803Y5161686D01*
X1685493Y5161737D01*
X1691081Y5162499D01*
X1696466Y5163972D01*
X1701495Y5166207D01*
X1706118Y5169103D01*
X1710232Y5172710D01*
X1713687Y5176977D01*
X1717954Y5183327D01*
X1818893Y5183327D01*
X1818893Y5160213D01*
X1844649Y5160213D01*
X1844649Y5171643D01*
X1844852Y5177078D01*
X1845411Y5180990D01*
X1846376Y5183530D01*
X1848815Y5185918D01*
X1849628Y5187543D01*
X1850389Y5190032D01*
X1851761Y5198465D01*
X1853234Y5212689D01*
X1857044Y5255412D01*
X1857502Y5258460D01*
X1862836Y5253126D01*
X1896465Y5217617D01*
X1942998Y5167833D01*
X1997303Y5108752D01*
X2006295Y5118252D01*
X1858518Y5276900D01*
X1874469Y5472125D01*
X1906930Y5507888D01*
X1981758Y5591606D01*
X2002586Y5615686D01*
X2008632Y5623153D01*
X2012391Y5628487D01*
X2014423Y5632196D01*
X2015236Y5634990D01*
X2015185Y5639003D01*
X2014880Y5641289D01*
X2014372Y5642813D01*
X2013813Y5643372D01*
X2007920Y5637428D01*
X1992934Y5621223D01*
X1918614Y5538825D01*
X1897075Y5515356D01*
X1882393Y5499912D01*
X1878380Y5495950D01*
X1876907Y5494934D01*
X1876958Y5502198D01*
X1877872Y5516321D01*
X1879396Y5535218D01*
X1892604Y5536336D01*
X1895093Y5537403D01*
X1896059Y5539638D01*
X1896262Y5543753D01*
X1896110Y5547817D01*
X1895195Y5550001D01*
X1892807Y5550814D01*
X1884883Y5551119D01*
X1882393Y5551678D01*
X1880870Y5552541D01*
X1878228Y5558637D01*
X1872996Y5565495D01*
X1866290Y5572302D01*
X1859737Y5577230D01*
X1856536Y5579364D01*
X1854301Y5581497D01*
X1853031Y5583732D01*
X1852269Y5588762D01*
X1850694Y5590184D01*
X1846783Y5590743D01*
X1831289Y5591048D01*
X1822704Y5591606D01*
X1806346Y5593486D01*
X1799488Y5594705D01*
X1794002Y5595975D01*
X1790395Y5597296D01*
X1787601Y5599938D01*
X1782165Y5600801D01*
X1771599Y5601258D01*
X1743964Y5601360D01*
X1729638Y5601106D01*
X1725269Y5600801D01*
X1722374Y5600293D01*
X1720596Y5599633D01*
X1719630Y5598718D01*
X1718208Y5595620D01*
X1716227Y5594197D01*
X1713077Y5593080D01*
X1702816Y5591200D01*
X1696821Y5589727D01*
X1690776Y5587898D01*
X1684782Y5585764D01*
X1679426Y5583529D01*
X1733550Y5583529D01*
X1734413Y5585104D01*
X1737512Y5586069D01*
X1743862Y5586526D01*
X1754378Y5586679D01*
X1764893Y5586526D01*
X1771243Y5586069D01*
X1774393Y5585104D01*
X1775206Y5583529D01*
X1774393Y5581954D01*
X1771243Y5580989D01*
X1764893Y5580481D01*
X1743862Y5580481D01*
X1737512Y5580989D01*
X1734413Y5581954D01*
X1733550Y5583529D01*
X1679426Y5583529D01*
X1673402Y5580684D01*
X1668373Y5577840D01*
X1658264Y5571134D01*
X1654708Y5569356D01*
X1652168Y5569407D01*
X1645716Y5573166D01*
X1641703Y5574182D01*
X1637792Y5574182D01*
X1634032Y5573268D01*
X1630527Y5571490D01*
X1627378Y5569000D01*
X1624736Y5565902D01*
X1622755Y5562295D01*
X1621485Y5558332D01*
X1621028Y5554065D01*
X1621117Y5553354D01*
X1663649Y5553354D01*
X1663649Y5554167D01*
X1664055Y5555081D01*
X1665833Y5557570D01*
X1668475Y5560161D01*
X1672031Y5562701D01*
X1676298Y5565292D01*
X1681225Y5567730D01*
X1686661Y5570067D01*
X1692605Y5572201D01*
X1698802Y5574080D01*
X1710791Y5577179D01*
X1716989Y5577840D01*
X1719325Y5575858D01*
X1719681Y5570931D01*
X1719681Y5563565D01*
X1789125Y5563565D01*
X1789226Y5575198D01*
X1789531Y5577840D01*
X1790039Y5579567D01*
X1790598Y5580126D01*
X1817928Y5576214D01*
X1824329Y5574030D01*
X1826564Y5570016D01*
X1826818Y5557266D01*
X1852625Y5557266D01*
X1852726Y5559704D01*
X1853082Y5561736D01*
X1853590Y5563057D01*
X1854200Y5563565D01*
X1855266Y5563057D01*
X1857044Y5561736D01*
X1861515Y5557266D01*
X1867255Y5550966D01*
X1855927Y5551119D01*
X1853692Y5551932D01*
X1852777Y5553811D01*
X1852625Y5557266D01*
X1826818Y5557266D01*
X1826818Y5550966D01*
X1697228Y5551017D01*
X1678939Y5551271D01*
X1668678Y5551779D01*
X1665884Y5552186D01*
X1664309Y5552744D01*
X1663649Y5553354D01*
X1621117Y5553354D01*
X1621586Y5549646D01*
X1623161Y5545226D01*
X1626717Y5540451D01*
X1631645Y5536742D01*
X1637080Y5534710D01*
X1645056Y5534761D01*
X1645634Y5534152D01*
X1864868Y5534152D01*
X1862378Y5497423D01*
X1861616Y5489295D01*
X1860397Y5482539D01*
X1859534Y5479440D01*
X1858365Y5476443D01*
X1856892Y5473395D01*
X1855063Y5470245D01*
X1850186Y5463336D01*
X1843278Y5454954D01*
X1770278Y5372760D01*
X1717598Y5428081D01*
X1791106Y5429199D01*
X1791106Y5460644D01*
X1703781Y5460644D01*
X1703781Y5442864D01*
X1670050Y5478373D01*
X1669948Y5504738D01*
X1669389Y5510022D01*
X1668221Y5512663D01*
X1664106Y5514695D01*
X1662887Y5516524D01*
X1662277Y5519623D01*
X1662125Y5534152D01*
X1645634Y5534152D01*
X1646936Y5532780D01*
X1647952Y5528411D01*
X1648206Y5518962D01*
X1647698Y5515152D01*
X1647189Y5513882D01*
X1646428Y5513070D01*
X1645412Y5512765D01*
X1644040Y5512968D01*
X1642313Y5513730D01*
X1637588Y5517083D01*
X1630883Y5523128D01*
X1621840Y5532069D01*
X1595526Y5559907D01*
X1543354Y5616244D01*
G37*
G36*
X1682292Y5218836D02*
G01*
X1677365Y5217769D01*
X1672691Y5214467D01*
X1669389Y5209794D01*
X1668272Y5204663D01*
X1669288Y5199430D01*
X1672386Y5194503D01*
X1677162Y5190794D01*
X1682343Y5189677D01*
X1687372Y5191150D01*
X1691741Y5195163D01*
X1694688Y5200243D01*
X1695653Y5205018D01*
X1694586Y5209641D01*
X1691538Y5214162D01*
X1687169Y5217617D01*
G37*
G36*
X1560931Y5002631D02*
G01*
X1560931Y4895494D01*
X1973630Y4895494D01*
X1973630Y5002631D01*
G37*
D10*
X5829300Y8889309D02*
G01*
X5829300Y8793853D01*
X5829300Y8793853D02*
G01*
X5774753Y8793853D01*
X5744753Y8889309D02*
G01*
X5744753Y8793853D01*
X5744753Y8889309D02*
G01*
X5685663Y8889309D01*
X5744753Y8843853D02*
G01*
X5708390Y8843853D01*
X5744753Y8793853D02*
G01*
X5685663Y8793853D01*
X5655663Y8889309D02*
G01*
X5655663Y8793853D01*
X5655663Y8889309D02*
G01*
X5623847Y8889309D01*
X5610209Y8884762D01*
X5601119Y8875671D01*
X5596572Y8866581D01*
X5592028Y8852946D01*
X5592028Y8830218D01*
X5596572Y8816581D01*
X5601119Y8807490D01*
X5610209Y8798399D01*
X5623847Y8793853D01*
X5655663Y8793853D01*
X5492028Y8889309D02*
G01*
X5492028Y8793853D01*
X5492028Y8889309D02*
G01*
X5460210Y8889309D01*
X5446572Y8884762D01*
X5437482Y8875671D01*
X5432938Y8866581D01*
X5428391Y8852946D01*
X5428391Y8830218D01*
X5432938Y8816581D01*
X5437482Y8807490D01*
X5446572Y8798399D01*
X5460210Y8793853D01*
X5492028Y8793853D01*
X5398391Y8857490D02*
G01*
X5398391Y8793853D01*
X5398391Y8830218D02*
G01*
X5393847Y8843853D01*
X5384754Y8852946D01*
X5375663Y8857490D01*
X5362028Y8857490D01*
X5332028Y8889309D02*
G01*
X5327482Y8884762D01*
X5322938Y8889309D01*
X5327482Y8893853D01*
X5332028Y8889309D01*
X5327482Y8857490D02*
G01*
X5327482Y8793853D01*
X5292938Y8857490D02*
G01*
X5265663Y8793853D01*
X5238391Y8857490D02*
G01*
X5265663Y8793853D01*
X5208391Y8830218D02*
G01*
X5153847Y8830218D01*
X5153847Y8839309D01*
X5158392Y8848399D01*
X5162938Y8852946D01*
X5172029Y8857490D01*
X5185663Y8857490D01*
X5194754Y8852946D01*
X5203847Y8843853D01*
X5208391Y8830218D01*
X5208391Y8821127D01*
X5203847Y8807490D01*
X5194754Y8798399D01*
X5185663Y8793853D01*
X5172029Y8793853D01*
X5162938Y8798399D01*
X5153847Y8807490D01*
X5842000Y8140009D02*
G01*
X5842000Y8044553D01*
X5842000Y8140009D02*
G01*
X5810181Y8140009D01*
X5796546Y8135462D01*
X5787453Y8126371D01*
X5782909Y8117281D01*
X5778362Y8103646D01*
X5778362Y8080918D01*
X5782909Y8067281D01*
X5787453Y8058190D01*
X5796546Y8049099D01*
X5810181Y8044553D01*
X5842000Y8044553D01*
X5693818Y8108190D02*
G01*
X5693818Y8044553D01*
X5693818Y8094553D02*
G01*
X5702909Y8103646D01*
X5712000Y8108190D01*
X5725637Y8108190D01*
X5734728Y8103646D01*
X5743818Y8094553D01*
X5748362Y8080918D01*
X5748362Y8071827D01*
X5743818Y8058190D01*
X5734728Y8049099D01*
X5725637Y8044553D01*
X5712000Y8044553D01*
X5702909Y8049099D01*
X5693818Y8058190D01*
X5650181Y8140009D02*
G01*
X5650181Y8062737D01*
X5645637Y8049099D01*
X5636547Y8044553D01*
X5627453Y8044553D01*
X5663818Y8108190D02*
G01*
X5632000Y8108190D01*
X5542909Y8108190D02*
G01*
X5542909Y8044553D01*
X5542909Y8094553D02*
G01*
X5552000Y8103646D01*
X5561091Y8108190D01*
X5574728Y8108190D01*
X5583819Y8103646D01*
X5592909Y8094553D01*
X5597453Y8080918D01*
X5597453Y8071827D01*
X5592909Y8058190D01*
X5583819Y8049099D01*
X5574728Y8044553D01*
X5561091Y8044553D01*
X5552000Y8049099D01*
X5542909Y8058190D01*
X5415638Y8140009D02*
G01*
X5424728Y8135462D01*
X5433819Y8126371D01*
X5438363Y8117281D01*
X5442910Y8103646D01*
X5442910Y8080918D01*
X5438363Y8067281D01*
X5433819Y8058190D01*
X5424728Y8049099D01*
X5415638Y8044553D01*
X5397454Y8044553D01*
X5388363Y8049099D01*
X5379272Y8058190D01*
X5374728Y8067281D01*
X5370182Y8080918D01*
X5370182Y8103646D01*
X5374728Y8117281D01*
X5379272Y8126371D01*
X5388363Y8135462D01*
X5397454Y8140009D01*
X5415638Y8140009D01*
X5340182Y8140009D02*
G01*
X5340182Y8071827D01*
X5335638Y8058190D01*
X5326547Y8049099D01*
X5312910Y8044553D01*
X5303819Y8044553D01*
X5290182Y8049099D01*
X5281091Y8058190D01*
X5276547Y8071827D01*
X5276547Y8140009D01*
X5214729Y8140009D02*
G01*
X5214729Y8044553D01*
X5246547Y8140009D02*
G01*
X5182910Y8140009D01*
X5842000Y7886009D02*
G01*
X5842000Y7790553D01*
X5842000Y7886009D02*
G01*
X5801090Y7886009D01*
X5787453Y7881462D01*
X5782909Y7876918D01*
X5778362Y7867827D01*
X5778362Y7858737D01*
X5782909Y7849646D01*
X5787453Y7845099D01*
X5801090Y7840553D01*
X5842000Y7840553D01*
X5810181Y7840553D02*
G01*
X5778362Y7790553D01*
X5748362Y7826918D02*
G01*
X5693818Y7826918D01*
X5693818Y7836009D01*
X5698363Y7845099D01*
X5702909Y7849646D01*
X5712000Y7854190D01*
X5725637Y7854190D01*
X5734728Y7849646D01*
X5743818Y7840553D01*
X5748362Y7826918D01*
X5748362Y7817827D01*
X5743818Y7804190D01*
X5734728Y7795099D01*
X5725637Y7790553D01*
X5712000Y7790553D01*
X5702909Y7795099D01*
X5693818Y7804190D01*
X5609272Y7854190D02*
G01*
X5609272Y7781462D01*
X5613819Y7767828D01*
X5618363Y7763281D01*
X5627453Y7758737D01*
X5641091Y7758737D01*
X5650181Y7763281D01*
X5609272Y7840553D02*
G01*
X5618363Y7849646D01*
X5627453Y7854190D01*
X5641091Y7854190D01*
X5650181Y7849646D01*
X5659272Y7840553D01*
X5663818Y7826918D01*
X5663818Y7817827D01*
X5659272Y7804190D01*
X5650181Y7795099D01*
X5641091Y7790553D01*
X5627453Y7790553D01*
X5618363Y7795099D01*
X5609272Y7804190D01*
X5579272Y7886009D02*
G01*
X5574728Y7881462D01*
X5570181Y7886009D01*
X5574728Y7890553D01*
X5579272Y7886009D01*
X5574728Y7854190D02*
G01*
X5574728Y7790553D01*
X5490182Y7840553D02*
G01*
X5494728Y7849646D01*
X5508363Y7854190D01*
X5522000Y7854190D01*
X5535637Y7849646D01*
X5540181Y7840553D01*
X5535637Y7831462D01*
X5526547Y7826918D01*
X5503819Y7822371D01*
X5494728Y7817827D01*
X5490182Y7808737D01*
X5490182Y7804190D01*
X5494728Y7795099D01*
X5508363Y7790553D01*
X5522000Y7790553D01*
X5535637Y7795099D01*
X5540181Y7804190D01*
X5446547Y7886009D02*
G01*
X5446547Y7808737D01*
X5442000Y7795099D01*
X5432910Y7790553D01*
X5423819Y7790553D01*
X5460182Y7854190D02*
G01*
X5428363Y7854190D01*
X5393819Y7826918D02*
G01*
X5339273Y7826918D01*
X5339273Y7836009D01*
X5343819Y7845099D01*
X5348363Y7849646D01*
X5357454Y7854190D01*
X5371091Y7854190D01*
X5380182Y7849646D01*
X5389272Y7840553D01*
X5393819Y7826918D01*
X5393819Y7817827D01*
X5389272Y7804190D01*
X5380182Y7795099D01*
X5371091Y7790553D01*
X5357454Y7790553D01*
X5348363Y7795099D01*
X5339273Y7804190D01*
X5309273Y7854190D02*
G01*
X5309273Y7790553D01*
X5309273Y7826918D02*
G01*
X5304729Y7840553D01*
X5295638Y7849646D01*
X5286547Y7854190D01*
X5272910Y7854190D01*
X5104729Y7863281D02*
G01*
X5109273Y7872371D01*
X5118364Y7881462D01*
X5127454Y7886009D01*
X5145638Y7886009D01*
X5154729Y7881462D01*
X5163820Y7872371D01*
X5168364Y7863281D01*
X5172910Y7849646D01*
X5172910Y7826918D01*
X5168364Y7813281D01*
X5163820Y7804190D01*
X5154729Y7795099D01*
X5145638Y7790553D01*
X5127454Y7790553D01*
X5118364Y7795099D01*
X5109273Y7804190D01*
X5104729Y7813281D01*
X5074729Y7886009D02*
G01*
X5074729Y7790553D01*
X5074729Y7790553D02*
G01*
X5020183Y7790553D01*
X4990183Y7886009D02*
G01*
X4990183Y7790553D01*
X4926548Y7886009D02*
G01*
X4990183Y7822371D01*
X4967455Y7845099D02*
G01*
X4926548Y7790553D01*
X5778362Y7605671D02*
G01*
X5787453Y7614762D01*
X5801090Y7619309D01*
X5819272Y7619309D01*
X5832909Y7614762D01*
X5842000Y7605671D01*
X5842000Y7596581D01*
X5837453Y7587490D01*
X5832909Y7582946D01*
X5823818Y7578399D01*
X5796546Y7569309D01*
X5787453Y7564762D01*
X5782909Y7560218D01*
X5778362Y7551127D01*
X5778362Y7537490D01*
X5787453Y7528399D01*
X5801090Y7523853D01*
X5819272Y7523853D01*
X5832909Y7528399D01*
X5842000Y7537490D01*
X5748362Y7560218D02*
G01*
X5693818Y7560218D01*
X5693818Y7569309D01*
X5698363Y7578399D01*
X5702909Y7582946D01*
X5712000Y7587490D01*
X5725637Y7587490D01*
X5734728Y7582946D01*
X5743818Y7573853D01*
X5748362Y7560218D01*
X5748362Y7551127D01*
X5743818Y7537490D01*
X5734728Y7528399D01*
X5725637Y7523853D01*
X5712000Y7523853D01*
X5702909Y7528399D01*
X5693818Y7537490D01*
X5663818Y7587490D02*
G01*
X5663818Y7523853D01*
X5663818Y7560218D02*
G01*
X5659272Y7573853D01*
X5650181Y7582946D01*
X5641091Y7587490D01*
X5627453Y7587490D01*
X5597453Y7619309D02*
G01*
X5592909Y7614762D01*
X5588363Y7619309D01*
X5592909Y7623853D01*
X5597453Y7619309D01*
X5592909Y7587490D02*
G01*
X5592909Y7523853D01*
X5503819Y7587490D02*
G01*
X5503819Y7523853D01*
X5503819Y7573853D02*
G01*
X5512909Y7582946D01*
X5522000Y7587490D01*
X5535637Y7587490D01*
X5544728Y7582946D01*
X5553819Y7573853D01*
X5558363Y7560218D01*
X5558363Y7551127D01*
X5553819Y7537490D01*
X5544728Y7528399D01*
X5535637Y7523853D01*
X5522000Y7523853D01*
X5512909Y7528399D01*
X5503819Y7537490D01*
X5473819Y7619309D02*
G01*
X5473819Y7523853D01*
X5305638Y7596581D02*
G01*
X5310182Y7605671D01*
X5319273Y7614762D01*
X5328363Y7619309D01*
X5346547Y7619309D01*
X5355638Y7614762D01*
X5364728Y7605671D01*
X5369272Y7596581D01*
X5373819Y7582946D01*
X5373819Y7560218D01*
X5369272Y7546581D01*
X5364728Y7537490D01*
X5355638Y7528399D01*
X5346547Y7523853D01*
X5328363Y7523853D01*
X5319273Y7528399D01*
X5310182Y7537490D01*
X5305638Y7546581D01*
X5275638Y7619309D02*
G01*
X5275638Y7523853D01*
X5275638Y7523853D02*
G01*
X5221091Y7523853D01*
X5191091Y7619309D02*
G01*
X5191091Y7523853D01*
X5127454Y7619309D02*
G01*
X5191091Y7555671D01*
X5168364Y7578399D02*
G01*
X5127454Y7523853D01*
X5773818Y7101281D02*
G01*
X5778362Y7110371D01*
X5787453Y7119462D01*
X5796546Y7124009D01*
X5814728Y7124009D01*
X5823818Y7119462D01*
X5832909Y7110371D01*
X5837453Y7101281D01*
X5842000Y7087646D01*
X5842000Y7064918D01*
X5837453Y7051281D01*
X5832909Y7042190D01*
X5823818Y7033099D01*
X5814728Y7028553D01*
X5796546Y7028553D01*
X5787453Y7033099D01*
X5778362Y7042190D01*
X5773818Y7051281D01*
X5773818Y7064918D01*
X5796546Y7064918D02*
G01*
X5773818Y7064918D01*
X5743818Y7124009D02*
G01*
X5743818Y7028553D01*
X5743818Y7124009D02*
G01*
X5680181Y7028553D01*
X5680181Y7124009D02*
G01*
X5680181Y7028553D01*
X5650181Y7124009D02*
G01*
X5650181Y7028553D01*
X5650181Y7124009D02*
G01*
X5618363Y7124009D01*
X5604728Y7119462D01*
X5595637Y7110371D01*
X5591091Y7101281D01*
X5586547Y7087646D01*
X5586547Y7064918D01*
X5591091Y7051281D01*
X5595637Y7042190D01*
X5604728Y7033099D01*
X5618363Y7028553D01*
X5650181Y7028553D01*
X5773818Y7355281D02*
G01*
X5778362Y7364371D01*
X5787453Y7373462D01*
X5796546Y7378009D01*
X5814728Y7378009D01*
X5823818Y7373462D01*
X5832909Y7364371D01*
X5837453Y7355281D01*
X5842000Y7341646D01*
X5842000Y7318918D01*
X5837453Y7305281D01*
X5832909Y7296190D01*
X5823818Y7287099D01*
X5814728Y7282553D01*
X5796546Y7282553D01*
X5787453Y7287099D01*
X5778362Y7296190D01*
X5773818Y7305281D01*
X5773818Y7318918D01*
X5796546Y7318918D02*
G01*
X5773818Y7318918D01*
X5743818Y7378009D02*
G01*
X5743818Y7282553D01*
X5743818Y7378009D02*
G01*
X5680181Y7282553D01*
X5680181Y7378009D02*
G01*
X5680181Y7282553D01*
X5650181Y7378009D02*
G01*
X5650181Y7282553D01*
X5650181Y7378009D02*
G01*
X5618363Y7378009D01*
X5604728Y7373462D01*
X5595637Y7364371D01*
X5591091Y7355281D01*
X5586547Y7341646D01*
X5586547Y7318918D01*
X5591091Y7305281D01*
X5595637Y7296190D01*
X5604728Y7287099D01*
X5618363Y7282553D01*
X5650181Y7282553D01*
X5814728Y6616009D02*
G01*
X5823818Y6611462D01*
X5832909Y6602371D01*
X5837453Y6593281D01*
X5842000Y6579646D01*
X5842000Y6556918D01*
X5837453Y6543281D01*
X5832909Y6534190D01*
X5823818Y6525099D01*
X5814728Y6520553D01*
X5796546Y6520553D01*
X5787453Y6525099D01*
X5778362Y6534190D01*
X5773818Y6543281D01*
X5769272Y6556918D01*
X5769272Y6579646D01*
X5773818Y6593281D01*
X5778362Y6602371D01*
X5787453Y6611462D01*
X5796546Y6616009D01*
X5814728Y6616009D01*
X5739272Y6584190D02*
G01*
X5739272Y6538737D01*
X5734728Y6525099D01*
X5725637Y6520553D01*
X5712000Y6520553D01*
X5702909Y6525099D01*
X5689272Y6538737D01*
X5689272Y6584190D02*
G01*
X5689272Y6520553D01*
X5645637Y6616009D02*
G01*
X5645637Y6538737D01*
X5641091Y6525099D01*
X5632000Y6520553D01*
X5622909Y6520553D01*
X5659272Y6584190D02*
G01*
X5627453Y6584190D01*
X5592909Y6584190D02*
G01*
X5592909Y6488737D01*
X5592909Y6570553D02*
G01*
X5583819Y6579646D01*
X5574728Y6584190D01*
X5561091Y6584190D01*
X5552000Y6579646D01*
X5542909Y6570553D01*
X5538363Y6556918D01*
X5538363Y6547827D01*
X5542909Y6534190D01*
X5552000Y6525099D01*
X5561091Y6520553D01*
X5574728Y6520553D01*
X5583819Y6525099D01*
X5592909Y6534190D01*
X5508363Y6584190D02*
G01*
X5508363Y6538737D01*
X5503819Y6525099D01*
X5494728Y6520553D01*
X5481091Y6520553D01*
X5472000Y6525099D01*
X5458363Y6538737D01*
X5458363Y6584190D02*
G01*
X5458363Y6520553D01*
X5414728Y6616009D02*
G01*
X5414728Y6538737D01*
X5410182Y6525099D01*
X5401091Y6520553D01*
X5392000Y6520553D01*
X5428363Y6584190D02*
G01*
X5396547Y6584190D01*
X5292001Y6616009D02*
G01*
X5292001Y6520553D01*
X5292001Y6616009D02*
G01*
X5232910Y6616009D01*
X5292001Y6570553D02*
G01*
X5255638Y6570553D01*
X5292001Y6520553D02*
G01*
X5232910Y6520553D01*
X5202910Y6616009D02*
G01*
X5202910Y6520553D01*
X5202910Y6616009D02*
G01*
X5139273Y6520553D01*
X5139273Y6616009D02*
G01*
X5139273Y6520553D01*
X5072910Y6616009D02*
G01*
X5109273Y6520553D01*
X5072910Y6616009D02*
G01*
X5036548Y6520553D01*
X5095638Y6552371D02*
G01*
X5050182Y6552371D01*
X5842000Y8394009D02*
G01*
X5842000Y8298553D01*
X5842000Y8394009D02*
G01*
X5810181Y8394009D01*
X5796546Y8389462D01*
X5787453Y8380371D01*
X5782909Y8371281D01*
X5778362Y8357646D01*
X5778362Y8334918D01*
X5782909Y8321281D01*
X5787453Y8312190D01*
X5796546Y8303099D01*
X5810181Y8298553D01*
X5842000Y8298553D01*
X5748362Y8394009D02*
G01*
X5743818Y8389462D01*
X5739272Y8394009D01*
X5743818Y8398553D01*
X5748362Y8394009D01*
X5743818Y8362190D02*
G01*
X5743818Y8298553D01*
X5654728Y8362190D02*
G01*
X5654728Y8289462D01*
X5659272Y8275828D01*
X5663818Y8271281D01*
X5672909Y8266737D01*
X5686546Y8266737D01*
X5695637Y8271281D01*
X5654728Y8348553D02*
G01*
X5663818Y8357646D01*
X5672909Y8362190D01*
X5686546Y8362190D01*
X5695637Y8357646D01*
X5704728Y8348553D01*
X5709272Y8334918D01*
X5709272Y8325827D01*
X5704728Y8312190D01*
X5695637Y8303099D01*
X5686546Y8298553D01*
X5672909Y8298553D01*
X5663818Y8303099D01*
X5654728Y8312190D01*
X5624728Y8394009D02*
G01*
X5620181Y8389462D01*
X5615637Y8394009D01*
X5620181Y8398553D01*
X5624728Y8394009D01*
X5620181Y8362190D02*
G01*
X5620181Y8298553D01*
X5572000Y8394009D02*
G01*
X5572000Y8316737D01*
X5567453Y8303099D01*
X5558363Y8298553D01*
X5549272Y8298553D01*
X5585637Y8362190D02*
G01*
X5553819Y8362190D01*
X5464728Y8362190D02*
G01*
X5464728Y8298553D01*
X5464728Y8348553D02*
G01*
X5473819Y8357646D01*
X5482910Y8362190D01*
X5496547Y8362190D01*
X5505637Y8357646D01*
X5514728Y8348553D01*
X5519272Y8334918D01*
X5519272Y8325827D01*
X5514728Y8312190D01*
X5505637Y8303099D01*
X5496547Y8298553D01*
X5482910Y8298553D01*
X5473819Y8303099D01*
X5464728Y8312190D01*
X5434728Y8394009D02*
G01*
X5434728Y8298553D01*
X5334728Y8394009D02*
G01*
X5298363Y8298553D01*
X5262001Y8394009D02*
G01*
X5298363Y8298553D01*
X5163820Y8371281D02*
G01*
X5168364Y8380371D01*
X5177454Y8389462D01*
X5186547Y8394009D01*
X5204729Y8394009D01*
X5213819Y8389462D01*
X5222910Y8380371D01*
X5227454Y8371281D01*
X5232001Y8357646D01*
X5232001Y8334918D01*
X5227454Y8321281D01*
X5222910Y8312190D01*
X5213819Y8303099D01*
X5204729Y8298553D01*
X5186547Y8298553D01*
X5177454Y8303099D01*
X5168364Y8312190D01*
X5163820Y8321281D01*
X5065638Y8371281D02*
G01*
X5070182Y8380371D01*
X5079273Y8389462D01*
X5088364Y8394009D01*
X5106548Y8394009D01*
X5115638Y8389462D01*
X5124729Y8380371D01*
X5129273Y8371281D01*
X5133820Y8357646D01*
X5133820Y8334918D01*
X5129273Y8321281D01*
X5124729Y8312190D01*
X5115638Y8303099D01*
X5106548Y8298553D01*
X5088364Y8298553D01*
X5079273Y8303099D01*
X5070182Y8312190D01*
X5065638Y8321281D01*
X5834913Y6870870D02*
G01*
X5834913Y6775414D01*
X5834913Y6870870D02*
G01*
X5794004Y6870870D01*
X5780366Y6866323D01*
X5775822Y6861779D01*
X5771276Y6852688D01*
X5771276Y6843598D01*
X5775822Y6834507D01*
X5780366Y6829960D01*
X5794004Y6825414D01*
X5834913Y6825414D01*
X5803094Y6825414D02*
G01*
X5771276Y6775414D01*
X5741276Y6811779D02*
G01*
X5686732Y6811779D01*
X5686732Y6820870D01*
X5691276Y6829960D01*
X5695822Y6834507D01*
X5704913Y6839051D01*
X5718550Y6839051D01*
X5727641Y6834507D01*
X5736732Y6825414D01*
X5741276Y6811779D01*
X5741276Y6802688D01*
X5736732Y6789051D01*
X5727641Y6779961D01*
X5718550Y6775414D01*
X5704913Y6775414D01*
X5695822Y6779961D01*
X5686732Y6789051D01*
X5602185Y6839051D02*
G01*
X5602185Y6766323D01*
X5606732Y6752689D01*
X5611276Y6748142D01*
X5620367Y6743598D01*
X5634004Y6743598D01*
X5643095Y6748142D01*
X5602185Y6825414D02*
G01*
X5611276Y6834507D01*
X5620367Y6839051D01*
X5634004Y6839051D01*
X5643095Y6834507D01*
X5652185Y6825414D01*
X5656732Y6811779D01*
X5656732Y6802688D01*
X5652185Y6789051D01*
X5643095Y6779961D01*
X5634004Y6775414D01*
X5620367Y6775414D01*
X5611276Y6779961D01*
X5602185Y6789051D01*
X5572185Y6870870D02*
G01*
X5567641Y6866323D01*
X5563095Y6870870D01*
X5567641Y6875414D01*
X5572185Y6870870D01*
X5567641Y6839051D02*
G01*
X5567641Y6775414D01*
X5483095Y6825414D02*
G01*
X5487642Y6834507D01*
X5501276Y6839051D01*
X5514914Y6839051D01*
X5528551Y6834507D01*
X5533095Y6825414D01*
X5528551Y6816323D01*
X5519460Y6811779D01*
X5496732Y6807233D01*
X5487642Y6802688D01*
X5483095Y6793598D01*
X5483095Y6789051D01*
X5487642Y6779961D01*
X5501276Y6775414D01*
X5514914Y6775414D01*
X5528551Y6779961D01*
X5533095Y6789051D01*
X5439460Y6870870D02*
G01*
X5439460Y6793598D01*
X5434914Y6779961D01*
X5425823Y6775414D01*
X5416732Y6775414D01*
X5453095Y6839051D02*
G01*
X5421276Y6839051D01*
X5386732Y6811779D02*
G01*
X5332186Y6811779D01*
X5332186Y6820870D01*
X5336733Y6829960D01*
X5341277Y6834507D01*
X5350367Y6839051D01*
X5364005Y6839051D01*
X5373095Y6834507D01*
X5382186Y6825414D01*
X5386732Y6811779D01*
X5386732Y6802688D01*
X5382186Y6789051D01*
X5373095Y6779961D01*
X5364005Y6775414D01*
X5350367Y6775414D01*
X5341277Y6779961D01*
X5332186Y6789051D01*
X5302186Y6839051D02*
G01*
X5302186Y6775414D01*
X5302186Y6811779D02*
G01*
X5297642Y6825414D01*
X5288551Y6834507D01*
X5279461Y6839051D01*
X5265823Y6839051D01*
X5097642Y6848142D02*
G01*
X5102186Y6857232D01*
X5111277Y6866323D01*
X5120368Y6870870D01*
X5138552Y6870870D01*
X5147642Y6866323D01*
X5156733Y6857232D01*
X5161277Y6848142D01*
X5165824Y6834507D01*
X5165824Y6811779D01*
X5161277Y6798142D01*
X5156733Y6789051D01*
X5147642Y6779961D01*
X5138552Y6775414D01*
X5120368Y6775414D01*
X5111277Y6779961D01*
X5102186Y6789051D01*
X5097642Y6798142D01*
X5067642Y6870870D02*
G01*
X5067642Y6775414D01*
X5067642Y6775414D02*
G01*
X5013096Y6775414D01*
X4983096Y6870870D02*
G01*
X4983096Y6775414D01*
X4983096Y6870870D02*
G01*
X4942187Y6870870D01*
X4928552Y6866323D01*
X4924005Y6861779D01*
X4919461Y6852688D01*
X4919461Y6843598D01*
X4924005Y6834507D01*
X4928552Y6829960D01*
X4942187Y6825414D01*
X4983096Y6825414D01*
X4951277Y6825414D02*
G01*
X4919461Y6775414D01*
X5842127Y8666426D02*
G01*
X5842127Y8570970D01*
X5842127Y8570970D02*
G01*
X5787580Y8570970D01*
X5757580Y8666426D02*
G01*
X5757580Y8570970D01*
X5757580Y8666426D02*
G01*
X5698490Y8666426D01*
X5757580Y8620970D02*
G01*
X5721217Y8620970D01*
X5757580Y8570970D02*
G01*
X5698490Y8570970D01*
X5668490Y8666426D02*
G01*
X5668490Y8570970D01*
X5668490Y8666426D02*
G01*
X5636674Y8666426D01*
X5623036Y8661880D01*
X5613946Y8652789D01*
X5609399Y8643698D01*
X5604855Y8630064D01*
X5604855Y8607336D01*
X5609399Y8593698D01*
X5613946Y8584608D01*
X5623036Y8575517D01*
X5636674Y8570970D01*
X5668490Y8570970D01*
X5504855Y8666426D02*
G01*
X5504855Y8570970D01*
X5504855Y8666426D02*
G01*
X5473037Y8666426D01*
X5459399Y8661880D01*
X5450309Y8652789D01*
X5445765Y8643698D01*
X5441218Y8630064D01*
X5441218Y8607336D01*
X5445765Y8593698D01*
X5450309Y8584608D01*
X5459399Y8575517D01*
X5473037Y8570970D01*
X5504855Y8570970D01*
X5411218Y8634608D02*
G01*
X5411218Y8570970D01*
X5411218Y8607336D02*
G01*
X5406674Y8620970D01*
X5397581Y8630064D01*
X5388490Y8634608D01*
X5374855Y8634608D01*
X5344855Y8666426D02*
G01*
X5340309Y8661880D01*
X5335765Y8666426D01*
X5340309Y8670970D01*
X5344855Y8666426D01*
X5340309Y8634608D02*
G01*
X5340309Y8570970D01*
X5305765Y8634608D02*
G01*
X5278490Y8570970D01*
X5251218Y8634608D02*
G01*
X5278490Y8570970D01*
X5221218Y8607336D02*
G01*
X5166674Y8607336D01*
X5166674Y8616426D01*
X5171219Y8625517D01*
X5175765Y8630064D01*
X5184856Y8634608D01*
X5198490Y8634608D01*
X5207581Y8630064D01*
X5216674Y8620970D01*
X5221218Y8607336D01*
X5221218Y8598245D01*
X5216674Y8584608D01*
X5207581Y8575517D01*
X5198490Y8570970D01*
X5184856Y8570970D01*
X5175765Y8575517D01*
X5166674Y8584608D01*
X2451100Y8927409D02*
G01*
X2451100Y8831953D01*
X2451100Y8831953D02*
G01*
X2396553Y8831953D01*
X2366553Y8927409D02*
G01*
X2366553Y8831953D01*
X2366553Y8927409D02*
G01*
X2307463Y8927409D01*
X2366553Y8881953D02*
G01*
X2330190Y8881953D01*
X2366553Y8831953D02*
G01*
X2307463Y8831953D01*
X2277463Y8927409D02*
G01*
X2277463Y8831953D01*
X2277463Y8927409D02*
G01*
X2245647Y8927409D01*
X2232009Y8922862D01*
X2222919Y8913771D01*
X2218372Y8904681D01*
X2213828Y8891046D01*
X2213828Y8868318D01*
X2218372Y8854681D01*
X2222919Y8845590D01*
X2232009Y8836499D01*
X2245647Y8831953D01*
X2277463Y8831953D01*
X2113828Y8927409D02*
G01*
X2113828Y8831953D01*
X2113828Y8927409D02*
G01*
X2082010Y8927409D01*
X2068372Y8922862D01*
X2059282Y8913771D01*
X2054738Y8904681D01*
X2050191Y8891046D01*
X2050191Y8868318D01*
X2054738Y8854681D01*
X2059282Y8845590D01*
X2068372Y8836499D01*
X2082010Y8831953D01*
X2113828Y8831953D01*
X2020191Y8895590D02*
G01*
X2020191Y8831953D01*
X2020191Y8868318D02*
G01*
X2015647Y8881953D01*
X2006554Y8891046D01*
X1997463Y8895590D01*
X1983828Y8895590D01*
X1953828Y8927409D02*
G01*
X1949282Y8922862D01*
X1944738Y8927409D01*
X1949282Y8931953D01*
X1953828Y8927409D01*
X1949282Y8895590D02*
G01*
X1949282Y8831953D01*
X1914738Y8895590D02*
G01*
X1887463Y8831953D01*
X1860191Y8895590D02*
G01*
X1887463Y8831953D01*
X1830191Y8868318D02*
G01*
X1775647Y8868318D01*
X1775647Y8877409D01*
X1780192Y8886499D01*
X1784738Y8891046D01*
X1793829Y8895590D01*
X1807463Y8895590D01*
X1816554Y8891046D01*
X1825647Y8881953D01*
X1830191Y8868318D01*
X1830191Y8859227D01*
X1825647Y8845590D01*
X1816554Y8836499D01*
X1807463Y8831953D01*
X1793829Y8831953D01*
X1784738Y8836499D01*
X1775647Y8845590D01*
X2451100Y8660709D02*
G01*
X2451100Y8565253D01*
X2451100Y8565253D02*
G01*
X2396553Y8565253D01*
X2366553Y8660709D02*
G01*
X2366553Y8565253D01*
X2366553Y8660709D02*
G01*
X2307463Y8660709D01*
X2366553Y8615253D02*
G01*
X2330190Y8615253D01*
X2366553Y8565253D02*
G01*
X2307463Y8565253D01*
X2277463Y8660709D02*
G01*
X2277463Y8565253D01*
X2277463Y8660709D02*
G01*
X2245647Y8660709D01*
X2232009Y8656162D01*
X2222919Y8647071D01*
X2218372Y8637981D01*
X2213828Y8624346D01*
X2213828Y8601618D01*
X2218372Y8587981D01*
X2222919Y8578890D01*
X2232009Y8569799D01*
X2245647Y8565253D01*
X2277463Y8565253D01*
X2113828Y8660709D02*
G01*
X2113828Y8565253D01*
X2113828Y8660709D02*
G01*
X2082010Y8660709D01*
X2068372Y8656162D01*
X2059282Y8647071D01*
X2054738Y8637981D01*
X2050191Y8624346D01*
X2050191Y8601618D01*
X2054738Y8587981D01*
X2059282Y8578890D01*
X2068372Y8569799D01*
X2082010Y8565253D01*
X2113828Y8565253D01*
X2020191Y8628890D02*
G01*
X2020191Y8565253D01*
X2020191Y8601618D02*
G01*
X2015647Y8615253D01*
X2006554Y8624346D01*
X1997463Y8628890D01*
X1983828Y8628890D01*
X1953828Y8660709D02*
G01*
X1949282Y8656162D01*
X1944738Y8660709D01*
X1949282Y8665253D01*
X1953828Y8660709D01*
X1949282Y8628890D02*
G01*
X1949282Y8565253D01*
X1914738Y8628890D02*
G01*
X1887463Y8565253D01*
X1860191Y8628890D02*
G01*
X1887463Y8565253D01*
X1830191Y8601618D02*
G01*
X1775647Y8601618D01*
X1775647Y8610709D01*
X1780192Y8619799D01*
X1784738Y8624346D01*
X1793829Y8628890D01*
X1807463Y8628890D01*
X1816554Y8624346D01*
X1825647Y8615253D01*
X1830191Y8601618D01*
X1830191Y8592527D01*
X1825647Y8578890D01*
X1816554Y8569799D01*
X1807463Y8565253D01*
X1793829Y8565253D01*
X1784738Y8569799D01*
X1775647Y8578890D01*
X1963818Y7367981D02*
G01*
X1968362Y7377071D01*
X1977453Y7386162D01*
X1986546Y7390709D01*
X2004728Y7390709D01*
X2013818Y7386162D01*
X2022909Y7377071D01*
X2027453Y7367981D01*
X2032000Y7354346D01*
X2032000Y7331618D01*
X2027453Y7317981D01*
X2022909Y7308890D01*
X2013818Y7299799D01*
X2004728Y7295253D01*
X1986546Y7295253D01*
X1977453Y7299799D01*
X1968362Y7308890D01*
X1963818Y7317981D01*
X1963818Y7331618D01*
X1986546Y7331618D02*
G01*
X1963818Y7331618D01*
X1933818Y7390709D02*
G01*
X1933818Y7295253D01*
X1933818Y7390709D02*
G01*
X1870181Y7295253D01*
X1870181Y7390709D02*
G01*
X1870181Y7295253D01*
X1840181Y7390709D02*
G01*
X1840181Y7295253D01*
X1840181Y7390709D02*
G01*
X1808363Y7390709D01*
X1794728Y7386162D01*
X1785637Y7377071D01*
X1781091Y7367981D01*
X1776547Y7354346D01*
X1776547Y7331618D01*
X1781091Y7317981D01*
X1785637Y7308890D01*
X1794728Y7299799D01*
X1808363Y7295253D01*
X1840181Y7295253D01*
X2552700Y8406709D02*
G01*
X2552700Y8311253D01*
X2552700Y8406709D02*
G01*
X2520881Y8406709D01*
X2507246Y8402162D01*
X2498153Y8393071D01*
X2493609Y8383981D01*
X2489062Y8370346D01*
X2489062Y8347618D01*
X2493609Y8333981D01*
X2498153Y8324890D01*
X2507246Y8315799D01*
X2520881Y8311253D01*
X2552700Y8311253D01*
X2459062Y8406709D02*
G01*
X2454518Y8402162D01*
X2449972Y8406709D01*
X2454518Y8411253D01*
X2459062Y8406709D01*
X2454518Y8374890D02*
G01*
X2454518Y8311253D01*
X2365428Y8374890D02*
G01*
X2365428Y8302162D01*
X2369972Y8288528D01*
X2374518Y8283981D01*
X2383609Y8279437D01*
X2397246Y8279437D01*
X2406337Y8283981D01*
X2365428Y8361253D02*
G01*
X2374518Y8370346D01*
X2383609Y8374890D01*
X2397246Y8374890D01*
X2406337Y8370346D01*
X2415428Y8361253D01*
X2419972Y8347618D01*
X2419972Y8338527D01*
X2415428Y8324890D01*
X2406337Y8315799D01*
X2397246Y8311253D01*
X2383609Y8311253D01*
X2374518Y8315799D01*
X2365428Y8324890D01*
X2335428Y8406709D02*
G01*
X2330881Y8402162D01*
X2326337Y8406709D01*
X2330881Y8411253D01*
X2335428Y8406709D01*
X2330881Y8374890D02*
G01*
X2330881Y8311253D01*
X2282700Y8406709D02*
G01*
X2282700Y8329437D01*
X2278153Y8315799D01*
X2269063Y8311253D01*
X2259972Y8311253D01*
X2296337Y8374890D02*
G01*
X2264519Y8374890D01*
X2175428Y8374890D02*
G01*
X2175428Y8311253D01*
X2175428Y8361253D02*
G01*
X2184519Y8370346D01*
X2193610Y8374890D01*
X2207247Y8374890D01*
X2216337Y8370346D01*
X2225428Y8361253D01*
X2229972Y8347618D01*
X2229972Y8338527D01*
X2225428Y8324890D01*
X2216337Y8315799D01*
X2207247Y8311253D01*
X2193610Y8311253D01*
X2184519Y8315799D01*
X2175428Y8324890D01*
X2145428Y8406709D02*
G01*
X2145428Y8311253D01*
X2045428Y8406709D02*
G01*
X2009063Y8311253D01*
X1972701Y8406709D02*
G01*
X2009063Y8311253D01*
X1874520Y8383981D02*
G01*
X1879064Y8393071D01*
X1888154Y8402162D01*
X1897247Y8406709D01*
X1915429Y8406709D01*
X1924519Y8402162D01*
X1933610Y8393071D01*
X1938154Y8383981D01*
X1942701Y8370346D01*
X1942701Y8347618D01*
X1938154Y8333981D01*
X1933610Y8324890D01*
X1924519Y8315799D01*
X1915429Y8311253D01*
X1897247Y8311253D01*
X1888154Y8315799D01*
X1879064Y8324890D01*
X1874520Y8333981D01*
X1776338Y8383981D02*
G01*
X1780882Y8393071D01*
X1789973Y8402162D01*
X1799064Y8406709D01*
X1817248Y8406709D01*
X1826338Y8402162D01*
X1835429Y8393071D01*
X1839973Y8383981D01*
X1844520Y8370346D01*
X1844520Y8347618D01*
X1839973Y8333981D01*
X1835429Y8324890D01*
X1826338Y8315799D01*
X1817248Y8311253D01*
X1799064Y8311253D01*
X1789973Y8315799D01*
X1780882Y8324890D01*
X1776338Y8333981D01*
X2550828Y6616009D02*
G01*
X2559918Y6611462D01*
X2569009Y6602371D01*
X2573553Y6593281D01*
X2578100Y6579646D01*
X2578100Y6556918D01*
X2573553Y6543281D01*
X2569009Y6534190D01*
X2559918Y6525099D01*
X2550828Y6520553D01*
X2532646Y6520553D01*
X2523553Y6525099D01*
X2514462Y6534190D01*
X2509918Y6543281D01*
X2505372Y6556918D01*
X2505372Y6579646D01*
X2509918Y6593281D01*
X2514462Y6602371D01*
X2523553Y6611462D01*
X2532646Y6616009D01*
X2550828Y6616009D01*
X2475372Y6584190D02*
G01*
X2475372Y6538737D01*
X2470828Y6525099D01*
X2461737Y6520553D01*
X2448100Y6520553D01*
X2439009Y6525099D01*
X2425372Y6538737D01*
X2425372Y6584190D02*
G01*
X2425372Y6520553D01*
X2381737Y6616009D02*
G01*
X2381737Y6538737D01*
X2377191Y6525099D01*
X2368100Y6520553D01*
X2359009Y6520553D01*
X2395372Y6584190D02*
G01*
X2363553Y6584190D01*
X2329009Y6584190D02*
G01*
X2329009Y6488737D01*
X2329009Y6570553D02*
G01*
X2319919Y6579646D01*
X2310828Y6584190D01*
X2297191Y6584190D01*
X2288100Y6579646D01*
X2279009Y6570553D01*
X2274463Y6556918D01*
X2274463Y6547827D01*
X2279009Y6534190D01*
X2288100Y6525099D01*
X2297191Y6520553D01*
X2310828Y6520553D01*
X2319919Y6525099D01*
X2329009Y6534190D01*
X2244463Y6584190D02*
G01*
X2244463Y6538737D01*
X2239919Y6525099D01*
X2230828Y6520553D01*
X2217191Y6520553D01*
X2208100Y6525099D01*
X2194463Y6538737D01*
X2194463Y6584190D02*
G01*
X2194463Y6520553D01*
X2150828Y6616009D02*
G01*
X2150828Y6538737D01*
X2146282Y6525099D01*
X2137191Y6520553D01*
X2128100Y6520553D01*
X2164463Y6584190D02*
G01*
X2132647Y6584190D01*
X2028101Y6616009D02*
G01*
X2028101Y6520553D01*
X2028101Y6616009D02*
G01*
X1969010Y6616009D01*
X2028101Y6570553D02*
G01*
X1991738Y6570553D01*
X2028101Y6520553D02*
G01*
X1969010Y6520553D01*
X1939010Y6616009D02*
G01*
X1939010Y6520553D01*
X1939010Y6616009D02*
G01*
X1875373Y6520553D01*
X1875373Y6616009D02*
G01*
X1875373Y6520553D01*
X1809010Y6616009D02*
G01*
X1845373Y6520553D01*
X1809010Y6616009D02*
G01*
X1772648Y6520553D01*
X1831738Y6552371D02*
G01*
X1786282Y6552371D01*
X2425562Y7631071D02*
G01*
X2434653Y7640162D01*
X2448290Y7644709D01*
X2466472Y7644709D01*
X2480109Y7640162D01*
X2489200Y7631071D01*
X2489200Y7621981D01*
X2484653Y7612890D01*
X2480109Y7608346D01*
X2471018Y7603799D01*
X2443746Y7594709D01*
X2434653Y7590162D01*
X2430109Y7585618D01*
X2425562Y7576527D01*
X2425562Y7562890D01*
X2434653Y7553799D01*
X2448290Y7549253D01*
X2466472Y7549253D01*
X2480109Y7553799D01*
X2489200Y7562890D01*
X2395562Y7585618D02*
G01*
X2341018Y7585618D01*
X2341018Y7594709D01*
X2345563Y7603799D01*
X2350109Y7608346D01*
X2359200Y7612890D01*
X2372837Y7612890D01*
X2381928Y7608346D01*
X2391018Y7599253D01*
X2395562Y7585618D01*
X2395562Y7576527D01*
X2391018Y7562890D01*
X2381928Y7553799D01*
X2372837Y7549253D01*
X2359200Y7549253D01*
X2350109Y7553799D01*
X2341018Y7562890D01*
X2311018Y7612890D02*
G01*
X2311018Y7549253D01*
X2311018Y7585618D02*
G01*
X2306472Y7599253D01*
X2297381Y7608346D01*
X2288291Y7612890D01*
X2274653Y7612890D01*
X2244653Y7644709D02*
G01*
X2240109Y7640162D01*
X2235563Y7644709D01*
X2240109Y7649253D01*
X2244653Y7644709D01*
X2240109Y7612890D02*
G01*
X2240109Y7549253D01*
X2151019Y7612890D02*
G01*
X2151019Y7549253D01*
X2151019Y7599253D02*
G01*
X2160109Y7608346D01*
X2169200Y7612890D01*
X2182837Y7612890D01*
X2191928Y7608346D01*
X2201019Y7599253D01*
X2205563Y7585618D01*
X2205563Y7576527D01*
X2201019Y7562890D01*
X2191928Y7553799D01*
X2182837Y7549253D01*
X2169200Y7549253D01*
X2160109Y7553799D01*
X2151019Y7562890D01*
X2121019Y7644709D02*
G01*
X2121019Y7549253D01*
X1952838Y7621981D02*
G01*
X1957382Y7631071D01*
X1966473Y7640162D01*
X1975563Y7644709D01*
X1993747Y7644709D01*
X2002838Y7640162D01*
X2011928Y7631071D01*
X2016472Y7621981D01*
X2021019Y7608346D01*
X2021019Y7585618D01*
X2016472Y7571981D01*
X2011928Y7562890D01*
X2002838Y7553799D01*
X1993747Y7549253D01*
X1975563Y7549253D01*
X1966473Y7553799D01*
X1957382Y7562890D01*
X1952838Y7571981D01*
X1922838Y7644709D02*
G01*
X1922838Y7549253D01*
X1922838Y7549253D02*
G01*
X1868291Y7549253D01*
X1838291Y7644709D02*
G01*
X1838291Y7549253D01*
X1774654Y7644709D02*
G01*
X1838291Y7581071D01*
X1815564Y7603799D02*
G01*
X1774654Y7549253D01*
X2692400Y7898709D02*
G01*
X2692400Y7803253D01*
X2692400Y7898709D02*
G01*
X2651490Y7898709D01*
X2637853Y7894162D01*
X2633309Y7889618D01*
X2628762Y7880527D01*
X2628762Y7871437D01*
X2633309Y7862346D01*
X2637853Y7857799D01*
X2651490Y7853253D01*
X2692400Y7853253D01*
X2660581Y7853253D02*
G01*
X2628762Y7803253D01*
X2598762Y7839618D02*
G01*
X2544218Y7839618D01*
X2544218Y7848709D01*
X2548763Y7857799D01*
X2553309Y7862346D01*
X2562400Y7866890D01*
X2576037Y7866890D01*
X2585128Y7862346D01*
X2594218Y7853253D01*
X2598762Y7839618D01*
X2598762Y7830527D01*
X2594218Y7816890D01*
X2585128Y7807799D01*
X2576037Y7803253D01*
X2562400Y7803253D01*
X2553309Y7807799D01*
X2544218Y7816890D01*
X2459672Y7866890D02*
G01*
X2459672Y7794162D01*
X2464219Y7780528D01*
X2468763Y7775981D01*
X2477853Y7771437D01*
X2491491Y7771437D01*
X2500581Y7775981D01*
X2459672Y7853253D02*
G01*
X2468763Y7862346D01*
X2477853Y7866890D01*
X2491491Y7866890D01*
X2500581Y7862346D01*
X2509672Y7853253D01*
X2514218Y7839618D01*
X2514218Y7830527D01*
X2509672Y7816890D01*
X2500581Y7807799D01*
X2491491Y7803253D01*
X2477853Y7803253D01*
X2468763Y7807799D01*
X2459672Y7816890D01*
X2429672Y7898709D02*
G01*
X2425128Y7894162D01*
X2420581Y7898709D01*
X2425128Y7903253D01*
X2429672Y7898709D01*
X2425128Y7866890D02*
G01*
X2425128Y7803253D01*
X2340582Y7853253D02*
G01*
X2345128Y7862346D01*
X2358763Y7866890D01*
X2372400Y7866890D01*
X2386037Y7862346D01*
X2390581Y7853253D01*
X2386037Y7844162D01*
X2376947Y7839618D01*
X2354219Y7835071D01*
X2345128Y7830527D01*
X2340582Y7821437D01*
X2340582Y7816890D01*
X2345128Y7807799D01*
X2358763Y7803253D01*
X2372400Y7803253D01*
X2386037Y7807799D01*
X2390581Y7816890D01*
X2296947Y7898709D02*
G01*
X2296947Y7821437D01*
X2292400Y7807799D01*
X2283310Y7803253D01*
X2274219Y7803253D01*
X2310582Y7866890D02*
G01*
X2278763Y7866890D01*
X2244219Y7839618D02*
G01*
X2189673Y7839618D01*
X2189673Y7848709D01*
X2194219Y7857799D01*
X2198763Y7862346D01*
X2207854Y7866890D01*
X2221491Y7866890D01*
X2230582Y7862346D01*
X2239672Y7853253D01*
X2244219Y7839618D01*
X2244219Y7830527D01*
X2239672Y7816890D01*
X2230582Y7807799D01*
X2221491Y7803253D01*
X2207854Y7803253D01*
X2198763Y7807799D01*
X2189673Y7816890D01*
X2159673Y7866890D02*
G01*
X2159673Y7803253D01*
X2159673Y7839618D02*
G01*
X2155129Y7853253D01*
X2146038Y7862346D01*
X2136947Y7866890D01*
X2123310Y7866890D01*
X1955129Y7875981D02*
G01*
X1959673Y7885071D01*
X1968764Y7894162D01*
X1977854Y7898709D01*
X1996038Y7898709D01*
X2005129Y7894162D01*
X2014220Y7885071D01*
X2018764Y7875981D01*
X2023310Y7862346D01*
X2023310Y7839618D01*
X2018764Y7825981D01*
X2014220Y7816890D01*
X2005129Y7807799D01*
X1996038Y7803253D01*
X1977854Y7803253D01*
X1968764Y7807799D01*
X1959673Y7816890D01*
X1955129Y7825981D01*
X1925129Y7898709D02*
G01*
X1925129Y7803253D01*
X1925129Y7803253D02*
G01*
X1870582Y7803253D01*
X1840583Y7898709D02*
G01*
X1840583Y7803253D01*
X1776948Y7898709D02*
G01*
X1840583Y7835071D01*
X1817855Y7857799D02*
G01*
X1776948Y7803253D01*
X2273300Y8152709D02*
G01*
X2273300Y8057253D01*
X2273300Y8152709D02*
G01*
X2241481Y8152709D01*
X2227846Y8148162D01*
X2218753Y8139071D01*
X2214209Y8129981D01*
X2209662Y8116346D01*
X2209662Y8093618D01*
X2214209Y8079981D01*
X2218753Y8070890D01*
X2227846Y8061799D01*
X2241481Y8057253D01*
X2273300Y8057253D01*
X2125118Y8120890D02*
G01*
X2125118Y8057253D01*
X2125118Y8107253D02*
G01*
X2134209Y8116346D01*
X2143300Y8120890D01*
X2156937Y8120890D01*
X2166028Y8116346D01*
X2175118Y8107253D01*
X2179662Y8093618D01*
X2179662Y8084527D01*
X2175118Y8070890D01*
X2166028Y8061799D01*
X2156937Y8057253D01*
X2143300Y8057253D01*
X2134209Y8061799D01*
X2125118Y8070890D01*
X2081481Y8152709D02*
G01*
X2081481Y8075437D01*
X2076937Y8061799D01*
X2067847Y8057253D01*
X2058753Y8057253D01*
X2095118Y8120890D02*
G01*
X2063300Y8120890D01*
X1974209Y8120890D02*
G01*
X1974209Y8057253D01*
X1974209Y8107253D02*
G01*
X1983300Y8116346D01*
X1992391Y8120890D01*
X2006028Y8120890D01*
X2015119Y8116346D01*
X2024209Y8107253D01*
X2028753Y8093618D01*
X2028753Y8084527D01*
X2024209Y8070890D01*
X2015119Y8061799D01*
X2006028Y8057253D01*
X1992391Y8057253D01*
X1983300Y8061799D01*
X1974209Y8070890D01*
X1874210Y8152709D02*
G01*
X1874210Y8057253D01*
X1844210Y8152709D02*
G01*
X1844210Y8057253D01*
X1844210Y8152709D02*
G01*
X1780573Y8057253D01*
X1780573Y8152709D02*
G01*
X1780573Y8057253D01*
X2692400Y6882709D02*
G01*
X2692400Y6787253D01*
X2692400Y6882709D02*
G01*
X2651490Y6882709D01*
X2637853Y6878162D01*
X2633309Y6873618D01*
X2628762Y6864527D01*
X2628762Y6855437D01*
X2633309Y6846346D01*
X2637853Y6841799D01*
X2651490Y6837253D01*
X2692400Y6837253D01*
X2660581Y6837253D02*
G01*
X2628762Y6787253D01*
X2598762Y6823618D02*
G01*
X2544218Y6823618D01*
X2544218Y6832709D01*
X2548763Y6841799D01*
X2553309Y6846346D01*
X2562400Y6850890D01*
X2576037Y6850890D01*
X2585128Y6846346D01*
X2594218Y6837253D01*
X2598762Y6823618D01*
X2598762Y6814527D01*
X2594218Y6800890D01*
X2585128Y6791799D01*
X2576037Y6787253D01*
X2562400Y6787253D01*
X2553309Y6791799D01*
X2544218Y6800890D01*
X2459672Y6850890D02*
G01*
X2459672Y6778162D01*
X2464219Y6764528D01*
X2468763Y6759981D01*
X2477853Y6755437D01*
X2491491Y6755437D01*
X2500581Y6759981D01*
X2459672Y6837253D02*
G01*
X2468763Y6846346D01*
X2477853Y6850890D01*
X2491491Y6850890D01*
X2500581Y6846346D01*
X2509672Y6837253D01*
X2514218Y6823618D01*
X2514218Y6814527D01*
X2509672Y6800890D01*
X2500581Y6791799D01*
X2491491Y6787253D01*
X2477853Y6787253D01*
X2468763Y6791799D01*
X2459672Y6800890D01*
X2429672Y6882709D02*
G01*
X2425128Y6878162D01*
X2420581Y6882709D01*
X2425128Y6887253D01*
X2429672Y6882709D01*
X2425128Y6850890D02*
G01*
X2425128Y6787253D01*
X2340582Y6837253D02*
G01*
X2345128Y6846346D01*
X2358763Y6850890D01*
X2372400Y6850890D01*
X2386037Y6846346D01*
X2390581Y6837253D01*
X2386037Y6828162D01*
X2376947Y6823618D01*
X2354219Y6819071D01*
X2345128Y6814527D01*
X2340582Y6805437D01*
X2340582Y6800890D01*
X2345128Y6791799D01*
X2358763Y6787253D01*
X2372400Y6787253D01*
X2386037Y6791799D01*
X2390581Y6800890D01*
X2296947Y6882709D02*
G01*
X2296947Y6805437D01*
X2292400Y6791799D01*
X2283310Y6787253D01*
X2274219Y6787253D01*
X2310582Y6850890D02*
G01*
X2278763Y6850890D01*
X2244219Y6823618D02*
G01*
X2189673Y6823618D01*
X2189673Y6832709D01*
X2194219Y6841799D01*
X2198763Y6846346D01*
X2207854Y6850890D01*
X2221491Y6850890D01*
X2230582Y6846346D01*
X2239672Y6837253D01*
X2244219Y6823618D01*
X2244219Y6814527D01*
X2239672Y6800890D01*
X2230582Y6791799D01*
X2221491Y6787253D01*
X2207854Y6787253D01*
X2198763Y6791799D01*
X2189673Y6800890D01*
X2159673Y6850890D02*
G01*
X2159673Y6787253D01*
X2159673Y6823618D02*
G01*
X2155129Y6837253D01*
X2146038Y6846346D01*
X2136947Y6850890D01*
X2123310Y6850890D01*
X1955129Y6859981D02*
G01*
X1959673Y6869071D01*
X1968764Y6878162D01*
X1977854Y6882709D01*
X1996038Y6882709D01*
X2005129Y6878162D01*
X2014220Y6869071D01*
X2018764Y6859981D01*
X2023310Y6846346D01*
X2023310Y6823618D01*
X2018764Y6809981D01*
X2014220Y6800890D01*
X2005129Y6791799D01*
X1996038Y6787253D01*
X1977854Y6787253D01*
X1968764Y6791799D01*
X1959673Y6800890D01*
X1955129Y6809981D01*
X1925129Y6882709D02*
G01*
X1925129Y6787253D01*
X1925129Y6787253D02*
G01*
X1870582Y6787253D01*
X1840583Y6882709D02*
G01*
X1840583Y6787253D01*
X1840583Y6882709D02*
G01*
X1799673Y6882709D01*
X1786039Y6878162D01*
X1781492Y6873618D01*
X1776948Y6864527D01*
X1776948Y6855437D01*
X1781492Y6846346D01*
X1786039Y6841799D01*
X1799673Y6837253D01*
X1840583Y6837253D01*
X1808764Y6837253D02*
G01*
X1776948Y6787253D01*
X1963818Y7101281D02*
G01*
X1968362Y7110371D01*
X1977453Y7119462D01*
X1986546Y7124009D01*
X2004728Y7124009D01*
X2013818Y7119462D01*
X2022909Y7110371D01*
X2027453Y7101281D01*
X2032000Y7087646D01*
X2032000Y7064918D01*
X2027453Y7051281D01*
X2022909Y7042190D01*
X2013818Y7033099D01*
X2004728Y7028553D01*
X1986546Y7028553D01*
X1977453Y7033099D01*
X1968362Y7042190D01*
X1963818Y7051281D01*
X1963818Y7064918D01*
X1986546Y7064918D02*
G01*
X1963818Y7064918D01*
X1933818Y7124009D02*
G01*
X1933818Y7028553D01*
X1933818Y7124009D02*
G01*
X1870181Y7028553D01*
X1870181Y7124009D02*
G01*
X1870181Y7028553D01*
X1840181Y7124009D02*
G01*
X1840181Y7028553D01*
X1840181Y7124009D02*
G01*
X1808363Y7124009D01*
X1794728Y7119462D01*
X1785637Y7110371D01*
X1781091Y7101281D01*
X1776547Y7087646D01*
X1776547Y7064918D01*
X1781091Y7051281D01*
X1785637Y7042190D01*
X1794728Y7033099D01*
X1808363Y7028553D01*
X1840181Y7028553D01*
X1892300Y9143309D02*
G01*
X1892300Y9047853D01*
X1862300Y9143309D02*
G01*
X1862300Y9047853D01*
X1862300Y9143309D02*
G01*
X1798662Y9047853D01*
X1798662Y9143309D02*
G01*
X1798662Y9047853D01*
X1768662Y9143309D02*
G01*
X1768662Y9047853D01*
X1768662Y9143309D02*
G01*
X1727753Y9143309D01*
X1714119Y9138762D01*
X1709572Y9134218D01*
X1705028Y9125127D01*
X1705028Y9111490D01*
X1709572Y9102399D01*
X1714119Y9097853D01*
X1727753Y9093309D01*
X1768662Y9093309D01*
X1675028Y9143309D02*
G01*
X1675028Y9075127D01*
X1670481Y9061490D01*
X1661391Y9052399D01*
X1647753Y9047853D01*
X1638663Y9047853D01*
X1625028Y9052399D01*
X1615937Y9061490D01*
X1611391Y9075127D01*
X1611391Y9143309D01*
X1549572Y9143309D02*
G01*
X1549572Y9047853D01*
X1581391Y9143309D02*
G01*
X1517754Y9143309D01*
X6094128Y9130609D02*
G01*
X6103218Y9126062D01*
X6112309Y9116971D01*
X6116853Y9107881D01*
X6121400Y9094246D01*
X6121400Y9071518D01*
X6116853Y9057881D01*
X6112309Y9048790D01*
X6103218Y9039699D01*
X6094128Y9035153D01*
X6075946Y9035153D01*
X6066853Y9039699D01*
X6057762Y9048790D01*
X6053218Y9057881D01*
X6048672Y9071518D01*
X6048672Y9094246D01*
X6053218Y9107881D01*
X6057762Y9116971D01*
X6066853Y9126062D01*
X6075946Y9130609D01*
X6094128Y9130609D01*
X6018672Y9130609D02*
G01*
X6018672Y9062427D01*
X6014128Y9048790D01*
X6005037Y9039699D01*
X5991400Y9035153D01*
X5982309Y9035153D01*
X5968672Y9039699D01*
X5959581Y9048790D01*
X5955037Y9062427D01*
X5955037Y9130609D01*
X5893219Y9130609D02*
G01*
X5893219Y9035153D01*
X5925037Y9130609D02*
G01*
X5861400Y9130609D01*
X5831400Y9130609D02*
G01*
X5831400Y9035153D01*
X5831400Y9130609D02*
G01*
X5790491Y9130609D01*
X5776854Y9126062D01*
X5772310Y9121518D01*
X5767763Y9112427D01*
X5767763Y9098790D01*
X5772310Y9089699D01*
X5776854Y9085153D01*
X5790491Y9080609D01*
X5831400Y9080609D01*
X5737763Y9130609D02*
G01*
X5737763Y9062427D01*
X5733219Y9048790D01*
X5724128Y9039699D01*
X5710491Y9035153D01*
X5701400Y9035153D01*
X5687763Y9039699D01*
X5678672Y9048790D01*
X5674128Y9062427D01*
X5674128Y9130609D01*
X5612310Y9130609D02*
G01*
X5612310Y9035153D01*
X5644128Y9130609D02*
G01*
X5580491Y9130609D01*
D11*
X5041900Y10781263D02*
G01*
X5041900Y10638081D01*
X5041900Y10638081D02*
G01*
X4960081Y10638081D01*
X4915082Y10781263D02*
G01*
X4915082Y10638081D01*
X4915082Y10781263D02*
G01*
X4867353Y10781263D01*
X4846899Y10774446D01*
X4833264Y10760809D01*
X4826447Y10747171D01*
X4819627Y10726717D01*
X4819627Y10692627D01*
X4826447Y10672173D01*
X4833264Y10658535D01*
X4846899Y10644898D01*
X4867353Y10638081D01*
X4915082Y10638081D01*
X4774628Y10781263D02*
G01*
X4774628Y10638081D01*
X4774628Y10781263D02*
G01*
X4720081Y10638081D01*
X4665538Y10781263D02*
G01*
X4720081Y10638081D01*
X4665538Y10781263D02*
G01*
X4665538Y10638081D01*
X4508718Y10747171D02*
G01*
X4508718Y10753991D01*
X4501901Y10767626D01*
X4495083Y10774446D01*
X4481446Y10781263D01*
X4454174Y10781263D01*
X4440537Y10774446D01*
X4433719Y10767626D01*
X4426899Y10753991D01*
X4426899Y10740354D01*
X4433719Y10726717D01*
X4447354Y10706262D01*
X4515538Y10638081D01*
X4420082Y10638081D01*
X4270082Y10781263D02*
G01*
X4270082Y10638081D01*
X4270082Y10638081D02*
G01*
X4188264Y10638081D01*
X4143265Y10781263D02*
G01*
X4143265Y10638081D01*
X4143265Y10781263D02*
G01*
X4054629Y10781263D01*
X4143265Y10713082D02*
G01*
X4088719Y10713082D01*
X4143265Y10638081D02*
G01*
X4054629Y10638081D01*
X4009628Y10781263D02*
G01*
X4009628Y10638081D01*
X4009628Y10781263D02*
G01*
X3961902Y10781263D01*
X3941447Y10774446D01*
X3927810Y10760809D01*
X3920992Y10747171D01*
X3914175Y10726717D01*
X3914175Y10692627D01*
X3920992Y10672173D01*
X3927810Y10658535D01*
X3941447Y10644898D01*
X3961902Y10638081D01*
X4009628Y10638081D01*
X3764175Y10781263D02*
G01*
X3764175Y10638081D01*
X3764175Y10781263D02*
G01*
X3716449Y10781263D01*
X3695994Y10774446D01*
X3682357Y10760809D01*
X3675540Y10747171D01*
X3668720Y10726717D01*
X3668720Y10692627D01*
X3675540Y10672173D01*
X3682357Y10658535D01*
X3695994Y10644898D01*
X3716449Y10638081D01*
X3764175Y10638081D01*
X3623721Y10781263D02*
G01*
X3616901Y10774446D01*
X3610084Y10781263D01*
X3616901Y10788081D01*
X3623721Y10781263D01*
X3616901Y10733537D02*
G01*
X3616901Y10638081D01*
X3490084Y10713082D02*
G01*
X3496901Y10726717D01*
X3517356Y10733537D01*
X3537811Y10733537D01*
X3558265Y10726717D01*
X3565085Y10713082D01*
X3558265Y10699445D01*
X3544630Y10692627D01*
X3510539Y10685807D01*
X3496901Y10678990D01*
X3490084Y10665353D01*
X3490084Y10658535D01*
X3496901Y10644898D01*
X3517356Y10638081D01*
X3537811Y10638081D01*
X3558265Y10644898D01*
X3565085Y10658535D01*
X3445085Y10733537D02*
G01*
X3445085Y10590354D01*
X3445085Y10713082D02*
G01*
X3431448Y10726717D01*
X3417811Y10733537D01*
X3397356Y10733537D01*
X3383721Y10726717D01*
X3370084Y10713082D01*
X3363267Y10692627D01*
X3363267Y10678990D01*
X3370084Y10658535D01*
X3383721Y10644898D01*
X3397356Y10638081D01*
X3417811Y10638081D01*
X3431448Y10644898D01*
X3445085Y10658535D01*
X3318266Y10781263D02*
G01*
X3318266Y10638081D01*
X3191449Y10733537D02*
G01*
X3191449Y10638081D01*
X3191449Y10713082D02*
G01*
X3205086Y10726717D01*
X3218721Y10733537D01*
X3239175Y10733537D01*
X3252812Y10726717D01*
X3266450Y10713082D01*
X3273267Y10692627D01*
X3273267Y10678990D01*
X3266450Y10658535D01*
X3252812Y10644898D01*
X3239175Y10638081D01*
X3218721Y10638081D01*
X3205086Y10644898D01*
X3191449Y10658535D01*
X3139630Y10733537D02*
G01*
X3098721Y10638081D01*
X3057812Y10733537D02*
G01*
X3098721Y10638081D01*
X3112358Y10610809D01*
X3125995Y10597172D01*
X3139630Y10590354D01*
X3146450Y10590354D01*
X2907812Y10781263D02*
G01*
X2907812Y10638081D01*
X2907812Y10781263D02*
G01*
X2846450Y10781263D01*
X2825996Y10774446D01*
X2819176Y10767626D01*
X2812359Y10753991D01*
X2812359Y10740354D01*
X2819176Y10726717D01*
X2825996Y10719899D01*
X2846450Y10713082D01*
X2907812Y10713082D02*
G01*
X2846450Y10713082D01*
X2825996Y10706262D01*
X2819176Y10699445D01*
X2812359Y10685807D01*
X2812359Y10665353D01*
X2819176Y10651718D01*
X2825996Y10644898D01*
X2846450Y10638081D01*
X2907812Y10638081D01*
X2733268Y10733537D02*
G01*
X2746903Y10726717D01*
X2760540Y10713082D01*
X2767357Y10692627D01*
X2767357Y10678990D01*
X2760540Y10658535D01*
X2746903Y10644898D01*
X2733268Y10638081D01*
X2712813Y10638081D01*
X2699176Y10644898D01*
X2685541Y10658535D01*
X2678722Y10678990D01*
X2678722Y10692627D01*
X2685541Y10713082D01*
X2699176Y10726717D01*
X2712813Y10733537D01*
X2733268Y10733537D01*
X2551904Y10733537D02*
G01*
X2551904Y10638081D01*
X2551904Y10713082D02*
G01*
X2565542Y10726717D01*
X2579176Y10733537D01*
X2599631Y10733537D01*
X2613268Y10726717D01*
X2626903Y10713082D01*
X2633723Y10692627D01*
X2633723Y10678990D01*
X2626903Y10658535D01*
X2613268Y10644898D01*
X2599631Y10638081D01*
X2579176Y10638081D01*
X2565542Y10644898D01*
X2551904Y10658535D01*
X2506903Y10733537D02*
G01*
X2506903Y10638081D01*
X2506903Y10692627D02*
G01*
X2500086Y10713082D01*
X2486451Y10726717D01*
X2472814Y10733537D01*
X2452359Y10733537D01*
X2325542Y10781263D02*
G01*
X2325542Y10638081D01*
X2325542Y10713082D02*
G01*
X2339177Y10726717D01*
X2352814Y10733537D01*
X2373269Y10733537D01*
X2386904Y10726717D01*
X2400541Y10713082D01*
X2407358Y10692627D01*
X2407358Y10678990D01*
X2400541Y10658535D01*
X2386904Y10644898D01*
X2373269Y10638081D01*
X2352814Y10638081D01*
X2339177Y10644898D01*
X2325542Y10658535D01*
D10*
X5041900Y10527609D02*
G01*
X5041900Y10432153D01*
X5041900Y10527609D02*
G01*
X5000990Y10527609D01*
X4987353Y10523062D01*
X4982809Y10518518D01*
X4978262Y10509427D01*
X4978262Y10495790D01*
X4982809Y10486699D01*
X4987353Y10482153D01*
X5000990Y10477609D01*
X5041900Y10477609D01*
X4948262Y10495790D02*
G01*
X4948262Y10450337D01*
X4943718Y10436699D01*
X4934628Y10432153D01*
X4920990Y10432153D01*
X4911900Y10436699D01*
X4898263Y10450337D01*
X4898263Y10495790D02*
G01*
X4898263Y10432153D01*
X4868263Y10527609D02*
G01*
X4868263Y10432153D01*
X4868263Y10482153D02*
G01*
X4859172Y10491246D01*
X4850081Y10495790D01*
X4836447Y10495790D01*
X4827353Y10491246D01*
X4818263Y10482153D01*
X4813719Y10468518D01*
X4813719Y10459427D01*
X4818263Y10445790D01*
X4827353Y10436699D01*
X4836447Y10432153D01*
X4850081Y10432153D01*
X4859172Y10436699D01*
X4868263Y10445790D01*
X4783719Y10527609D02*
G01*
X4783719Y10432153D01*
X4753719Y10527609D02*
G01*
X4749172Y10523062D01*
X4744628Y10527609D01*
X4749172Y10532153D01*
X4753719Y10527609D01*
X4749172Y10495790D02*
G01*
X4749172Y10432153D01*
X4664628Y10482153D02*
G01*
X4669172Y10491246D01*
X4682810Y10495790D01*
X4696447Y10495790D01*
X4710082Y10491246D01*
X4714628Y10482153D01*
X4710082Y10473062D01*
X4700991Y10468518D01*
X4678263Y10463971D01*
X4669172Y10459427D01*
X4664628Y10450337D01*
X4664628Y10445790D01*
X4669172Y10436699D01*
X4682810Y10432153D01*
X4696447Y10432153D01*
X4710082Y10436699D01*
X4714628Y10445790D01*
X4634628Y10527609D02*
G01*
X4634628Y10432153D01*
X4634628Y10477609D02*
G01*
X4620991Y10491246D01*
X4611900Y10495790D01*
X4598263Y10495790D01*
X4589172Y10491246D01*
X4584628Y10477609D01*
X4584628Y10432153D01*
X4554628Y10468518D02*
G01*
X4500082Y10468518D01*
X4500082Y10477609D01*
X4504629Y10486699D01*
X4509173Y10491246D01*
X4518263Y10495790D01*
X4531901Y10495790D01*
X4540991Y10491246D01*
X4550082Y10482153D01*
X4554628Y10468518D01*
X4554628Y10459427D01*
X4550082Y10445790D01*
X4540991Y10436699D01*
X4531901Y10432153D01*
X4518263Y10432153D01*
X4509173Y10436699D01*
X4500082Y10445790D01*
X4415538Y10527609D02*
G01*
X4415538Y10432153D01*
X4415538Y10482153D02*
G01*
X4424629Y10491246D01*
X4433719Y10495790D01*
X4447354Y10495790D01*
X4456447Y10491246D01*
X4465538Y10482153D01*
X4470082Y10468518D01*
X4470082Y10459427D01*
X4465538Y10445790D01*
X4456447Y10436699D01*
X4447354Y10432153D01*
X4433719Y10432153D01*
X4424629Y10436699D01*
X4415538Y10445790D01*
X4315538Y10495790D02*
G01*
X4315538Y10450337D01*
X4310992Y10436699D01*
X4301901Y10432153D01*
X4288264Y10432153D01*
X4279173Y10436699D01*
X4265538Y10450337D01*
X4265538Y10495790D02*
G01*
X4265538Y10432153D01*
X4235538Y10495790D02*
G01*
X4235538Y10432153D01*
X4235538Y10477609D02*
G01*
X4221901Y10491246D01*
X4212810Y10495790D01*
X4199173Y10495790D01*
X4190083Y10491246D01*
X4185538Y10477609D01*
X4185538Y10432153D01*
X4100992Y10527609D02*
G01*
X4100992Y10432153D01*
X4100992Y10482153D02*
G01*
X4110083Y10491246D01*
X4119173Y10495790D01*
X4132811Y10495790D01*
X4141901Y10491246D01*
X4150992Y10482153D01*
X4155539Y10468518D01*
X4155539Y10459427D01*
X4150992Y10445790D01*
X4141901Y10436699D01*
X4132811Y10432153D01*
X4119173Y10432153D01*
X4110083Y10436699D01*
X4100992Y10445790D01*
X4070992Y10468518D02*
G01*
X4016448Y10468518D01*
X4016448Y10477609D01*
X4020992Y10486699D01*
X4025539Y10491246D01*
X4034629Y10495790D01*
X4048264Y10495790D01*
X4057355Y10491246D01*
X4066448Y10482153D01*
X4070992Y10468518D01*
X4070992Y10459427D01*
X4066448Y10445790D01*
X4057355Y10436699D01*
X4048264Y10432153D01*
X4034629Y10432153D01*
X4025539Y10436699D01*
X4016448Y10445790D01*
X3986448Y10495790D02*
G01*
X3986448Y10432153D01*
X3986448Y10468518D02*
G01*
X3981902Y10482153D01*
X3972811Y10491246D01*
X3963720Y10495790D01*
X3950083Y10495790D01*
X3781902Y10504881D02*
G01*
X3786449Y10513971D01*
X3795539Y10523062D01*
X3804630Y10527609D01*
X3822811Y10527609D01*
X3831902Y10523062D01*
X3840993Y10513971D01*
X3845539Y10504881D01*
X3850083Y10491246D01*
X3850083Y10468518D01*
X3845539Y10454881D01*
X3840993Y10445790D01*
X3831902Y10436699D01*
X3822811Y10432153D01*
X3804630Y10432153D01*
X3795539Y10436699D01*
X3786449Y10445790D01*
X3781902Y10454881D01*
X3751902Y10527609D02*
G01*
X3751902Y10432153D01*
X3751902Y10527609D02*
G01*
X3692812Y10527609D01*
X3751902Y10482153D02*
G01*
X3715539Y10482153D01*
X3751902Y10432153D02*
G01*
X3692812Y10432153D01*
X3662812Y10527609D02*
G01*
X3662812Y10432153D01*
X3662812Y10527609D02*
G01*
X3621902Y10527609D01*
X3608265Y10523062D01*
X3603721Y10518518D01*
X3599174Y10509427D01*
X3599174Y10500337D01*
X3603721Y10491246D01*
X3608265Y10486699D01*
X3621902Y10482153D01*
X3662812Y10482153D01*
X3630993Y10482153D02*
G01*
X3599174Y10432153D01*
X3569174Y10527609D02*
G01*
X3569174Y10432153D01*
X3569174Y10527609D02*
G01*
X3505540Y10432153D01*
X3505540Y10527609D02*
G01*
X3505540Y10432153D01*
X3475540Y10473062D02*
G01*
X3393721Y10473062D01*
X3336450Y10527609D02*
G01*
X3345540Y10523062D01*
X3354631Y10513971D01*
X3359175Y10504881D01*
X3363722Y10491246D01*
X3363722Y10468518D01*
X3359175Y10454881D01*
X3354631Y10445790D01*
X3345540Y10436699D01*
X3336450Y10432153D01*
X3318266Y10432153D01*
X3309175Y10436699D01*
X3300084Y10445790D01*
X3295540Y10454881D01*
X3290994Y10468518D01*
X3290994Y10491246D01*
X3295540Y10504881D01*
X3300084Y10513971D01*
X3309175Y10523062D01*
X3318266Y10527609D01*
X3336450Y10527609D01*
X3260994Y10527609D02*
G01*
X3260994Y10432153D01*
X3197357Y10527609D02*
G01*
X3197357Y10432153D01*
X3260994Y10482153D02*
G01*
X3197357Y10482153D01*
X3167357Y10527609D02*
G01*
X3167357Y10432153D01*
X3167357Y10432153D02*
G01*
X3112813Y10432153D01*
X3082813Y10473062D02*
G01*
X3000994Y10473062D01*
X2907357Y10513971D02*
G01*
X2916450Y10523062D01*
X2930085Y10527609D01*
X2948266Y10527609D01*
X2961904Y10523062D01*
X2970994Y10513971D01*
X2970994Y10504881D01*
X2966450Y10495790D01*
X2961904Y10491246D01*
X2952813Y10486699D01*
X2925541Y10477609D01*
X2916450Y10473062D01*
X2911904Y10468518D01*
X2907357Y10459427D01*
X2907357Y10445790D01*
X2916450Y10436699D01*
X2930085Y10432153D01*
X2948266Y10432153D01*
X2961904Y10436699D01*
X2970994Y10445790D01*
X2807357Y10527609D02*
G01*
X2807357Y10432153D01*
X2777357Y10527609D02*
G01*
X2772813Y10523062D01*
X2768267Y10527609D01*
X2772813Y10532153D01*
X2777357Y10527609D01*
X2772813Y10495790D02*
G01*
X2772813Y10432153D01*
X2683723Y10482153D02*
G01*
X2692814Y10491246D01*
X2701904Y10495790D01*
X2715541Y10495790D01*
X2724632Y10491246D01*
X2733723Y10482153D01*
X2738267Y10468518D01*
X2738267Y10459427D01*
X2733723Y10445790D01*
X2724632Y10436699D01*
X2715541Y10432153D01*
X2701904Y10432153D01*
X2692814Y10436699D01*
X2683723Y10445790D01*
X2653723Y10468518D02*
G01*
X2599176Y10468518D01*
X2599176Y10477609D01*
X2603723Y10486699D01*
X2608267Y10491246D01*
X2617358Y10495790D01*
X2630995Y10495790D01*
X2640086Y10491246D01*
X2649176Y10482153D01*
X2653723Y10468518D01*
X2653723Y10459427D01*
X2649176Y10445790D01*
X2640086Y10436699D01*
X2630995Y10432153D01*
X2617358Y10432153D01*
X2608267Y10436699D01*
X2599176Y10445790D01*
X2569176Y10495790D02*
G01*
X2569176Y10432153D01*
X2569176Y10477609D02*
G01*
X2555542Y10491246D01*
X2546451Y10495790D01*
X2532814Y10495790D01*
X2523723Y10491246D01*
X2519177Y10477609D01*
X2519177Y10432153D01*
X2439177Y10482153D02*
G01*
X2443723Y10491246D01*
X2457358Y10495790D01*
X2470995Y10495790D01*
X2484633Y10491246D01*
X2489177Y10482153D01*
X2484633Y10473062D01*
X2475542Y10468518D01*
X2452814Y10463971D01*
X2443723Y10459427D01*
X2439177Y10450337D01*
X2439177Y10445790D01*
X2443723Y10436699D01*
X2457358Y10432153D01*
X2470995Y10432153D01*
X2484633Y10436699D01*
X2489177Y10445790D01*
X2409177Y10468518D02*
G01*
X2354633Y10468518D01*
X2354633Y10477609D01*
X2359177Y10486699D01*
X2363724Y10491246D01*
X2372814Y10495790D01*
X2386451Y10495790D01*
X2395542Y10491246D01*
X2404633Y10482153D01*
X2409177Y10468518D01*
X2409177Y10459427D01*
X2404633Y10445790D01*
X2395542Y10436699D01*
X2386451Y10432153D01*
X2372814Y10432153D01*
X2363724Y10436699D01*
X2354633Y10445790D01*
X2320086Y10454881D02*
G01*
X2324633Y10450337D01*
X2320086Y10445790D01*
X2315542Y10450337D01*
X2320086Y10454881D01*
D12*
X4076700Y10222809D02*
G01*
X4076700Y10127353D01*
X4076700Y10222809D02*
G01*
X4035790Y10222809D01*
X4022153Y10218262D01*
X4017609Y10213718D01*
X4013062Y10204627D01*
X4013062Y10195537D01*
X4017609Y10186446D01*
X4022153Y10181899D01*
X4035790Y10177353D01*
X4076700Y10177353D01*
X4044881Y10177353D02*
G01*
X4013062Y10127353D01*
X3983062Y10163718D02*
G01*
X3928518Y10163718D01*
X3928518Y10172809D01*
X3933063Y10181899D01*
X3937609Y10186446D01*
X3946700Y10190990D01*
X3960337Y10190990D01*
X3969428Y10186446D01*
X3978518Y10177353D01*
X3983062Y10163718D01*
X3983062Y10154627D01*
X3978518Y10140990D01*
X3969428Y10131899D01*
X3960337Y10127353D01*
X3946700Y10127353D01*
X3937609Y10131899D01*
X3928518Y10140990D01*
X3898518Y10190990D02*
G01*
X3871247Y10127353D01*
X3843972Y10190990D02*
G01*
X3871247Y10127353D01*
X3809428Y10150081D02*
G01*
X3813972Y10145537D01*
X3809428Y10140990D01*
X3804881Y10145537D01*
X3809428Y10150081D01*
X3704882Y10204627D02*
G01*
X3695791Y10209171D01*
X3682154Y10222809D01*
X3682154Y10127353D01*
X3647610Y10150081D02*
G01*
X3652154Y10145537D01*
X3647610Y10140990D01*
X3643063Y10145537D01*
X3647610Y10150081D01*
X3608519Y10200081D02*
G01*
X3608519Y10204627D01*
X3603972Y10213718D01*
X3599428Y10218262D01*
X3590338Y10222809D01*
X3572154Y10222809D01*
X3563063Y10218262D01*
X3558519Y10213718D01*
X3553973Y10204627D01*
X3553973Y10195537D01*
X3558519Y10186446D01*
X3567610Y10172809D01*
X3613063Y10127353D01*
X3549429Y10127353D01*
X3514882Y10150081D02*
G01*
X3519429Y10145537D01*
X3514882Y10140990D01*
X3510338Y10145537D01*
X3514882Y10150081D01*
X3475791Y10200081D02*
G01*
X3475791Y10204627D01*
X3471247Y10213718D01*
X3466701Y10218262D01*
X3457610Y10222809D01*
X3439429Y10222809D01*
X3430338Y10218262D01*
X3425791Y10213718D01*
X3421247Y10204627D01*
X3421247Y10195537D01*
X3425791Y10186446D01*
X3434882Y10172809D01*
X3480338Y10127353D01*
X3416701Y10127353D01*
D10*
X4572000Y10375209D02*
G01*
X4572000Y10279753D01*
X4572000Y10375209D02*
G01*
X4540181Y10375209D01*
X4526546Y10370662D01*
X4517453Y10361571D01*
X4512909Y10352481D01*
X4508362Y10338846D01*
X4508362Y10316118D01*
X4512909Y10302481D01*
X4517453Y10293390D01*
X4526546Y10284299D01*
X4540181Y10279753D01*
X4572000Y10279753D01*
X4478362Y10316118D02*
G01*
X4423818Y10316118D01*
X4423818Y10325209D01*
X4428363Y10334299D01*
X4432909Y10338846D01*
X4442000Y10343390D01*
X4455637Y10343390D01*
X4464728Y10338846D01*
X4473818Y10329753D01*
X4478362Y10316118D01*
X4478362Y10307027D01*
X4473818Y10293390D01*
X4464728Y10284299D01*
X4455637Y10279753D01*
X4442000Y10279753D01*
X4432909Y10284299D01*
X4423818Y10293390D01*
X4343819Y10329753D02*
G01*
X4348363Y10338846D01*
X4362000Y10343390D01*
X4375637Y10343390D01*
X4389272Y10338846D01*
X4393818Y10329753D01*
X4389272Y10320662D01*
X4380181Y10316118D01*
X4357453Y10311571D01*
X4348363Y10307027D01*
X4343819Y10297937D01*
X4343819Y10293390D01*
X4348363Y10284299D01*
X4362000Y10279753D01*
X4375637Y10279753D01*
X4389272Y10284299D01*
X4393818Y10293390D01*
X4313819Y10375209D02*
G01*
X4309272Y10370662D01*
X4304728Y10375209D01*
X4309272Y10379753D01*
X4313819Y10375209D01*
X4309272Y10343390D02*
G01*
X4309272Y10279753D01*
X4220182Y10343390D02*
G01*
X4220182Y10270662D01*
X4224728Y10257028D01*
X4229272Y10252481D01*
X4238363Y10247937D01*
X4252000Y10247937D01*
X4261091Y10252481D01*
X4220182Y10329753D02*
G01*
X4229272Y10338846D01*
X4238363Y10343390D01*
X4252000Y10343390D01*
X4261091Y10338846D01*
X4270181Y10329753D01*
X4274728Y10316118D01*
X4274728Y10307027D01*
X4270181Y10293390D01*
X4261091Y10284299D01*
X4252000Y10279753D01*
X4238363Y10279753D01*
X4229272Y10284299D01*
X4220182Y10293390D01*
X4190182Y10343390D02*
G01*
X4190182Y10279753D01*
X4190182Y10325209D02*
G01*
X4176547Y10338846D01*
X4167454Y10343390D01*
X4153819Y10343390D01*
X4144728Y10338846D01*
X4140182Y10325209D01*
X4140182Y10279753D01*
X4110182Y10316118D02*
G01*
X4055638Y10316118D01*
X4055638Y10325209D01*
X4060182Y10334299D01*
X4064728Y10338846D01*
X4073819Y10343390D01*
X4087454Y10343390D01*
X4096547Y10338846D01*
X4105638Y10329753D01*
X4110182Y10316118D01*
X4110182Y10307027D01*
X4105638Y10293390D01*
X4096547Y10284299D01*
X4087454Y10279753D01*
X4073819Y10279753D01*
X4064728Y10284299D01*
X4055638Y10293390D01*
X3971091Y10375209D02*
G01*
X3971091Y10279753D01*
X3971091Y10329753D02*
G01*
X3980182Y10338846D01*
X3989273Y10343390D01*
X4002910Y10343390D01*
X4012001Y10338846D01*
X4021091Y10329753D01*
X4025638Y10316118D01*
X4025638Y10307027D01*
X4021091Y10293390D01*
X4012001Y10284299D01*
X4002910Y10279753D01*
X3989273Y10279753D01*
X3980182Y10284299D01*
X3971091Y10293390D01*
X3871092Y10375209D02*
G01*
X3871092Y10279753D01*
X3871092Y10329753D02*
G01*
X3862001Y10338846D01*
X3852910Y10343390D01*
X3839273Y10343390D01*
X3830182Y10338846D01*
X3821092Y10329753D01*
X3816548Y10316118D01*
X3816548Y10307027D01*
X3821092Y10293390D01*
X3830182Y10284299D01*
X3839273Y10279753D01*
X3852910Y10279753D01*
X3862001Y10284299D01*
X3871092Y10293390D01*
X3782001Y10343390D02*
G01*
X3754729Y10279753D01*
X3727455Y10343390D02*
G01*
X3754729Y10279753D01*
X3763820Y10261572D01*
X3772910Y10252481D01*
X3782001Y10247937D01*
X3786548Y10247937D01*
X3627455Y10375209D02*
G01*
X3627455Y10279753D01*
X3627455Y10375209D02*
G01*
X3563820Y10279753D01*
X3563820Y10375209D02*
G01*
X3563820Y10279753D01*
X3529274Y10302481D02*
G01*
X3533820Y10297937D01*
X3529274Y10293390D01*
X3524730Y10297937D01*
X3529274Y10302481D01*
X3494730Y10375209D02*
G01*
X3494730Y10279753D01*
X3494730Y10375209D02*
G01*
X3462911Y10375209D01*
X3449274Y10370662D01*
X3440183Y10361571D01*
X3435639Y10352481D01*
X3431092Y10338846D01*
X3431092Y10316118D01*
X3435639Y10302481D01*
X3440183Y10293390D01*
X3449274Y10284299D01*
X3462911Y10279753D01*
X3494730Y10279753D01*
X3378365Y10343390D02*
G01*
X3387455Y10338846D01*
X3396548Y10329753D01*
X3401093Y10316118D01*
X3401093Y10307027D01*
X3396548Y10293390D01*
X3387455Y10284299D01*
X3378365Y10279753D01*
X3364730Y10279753D01*
X3355639Y10284299D01*
X3346549Y10293390D01*
X3342002Y10307027D01*
X3342002Y10316118D01*
X3346549Y10329753D01*
X3355639Y10338846D01*
X3364730Y10343390D01*
X3378365Y10343390D01*
X3312002Y10343390D02*
G01*
X3312002Y10279753D01*
X3312002Y10316118D02*
G01*
X3307455Y10329753D01*
X3298365Y10338846D01*
X3289274Y10343390D01*
X3275639Y10343390D01*
X3245639Y10343390D02*
G01*
X3245639Y10279753D01*
X3245639Y10325209D02*
G01*
X3232002Y10338846D01*
X3222912Y10343390D01*
X3209274Y10343390D01*
X3200184Y10338846D01*
X3195640Y10325209D01*
X3195640Y10279753D01*
X3115640Y10329753D02*
G01*
X3120184Y10338846D01*
X3133821Y10343390D01*
X3147456Y10343390D01*
X3161093Y10338846D01*
X3165640Y10329753D01*
X3161093Y10320662D01*
X3152002Y10316118D01*
X3129274Y10311571D01*
X3120184Y10307027D01*
X3115640Y10297937D01*
X3115640Y10293390D01*
X3120184Y10284299D01*
X3133821Y10279753D01*
X3147456Y10279753D01*
X3161093Y10284299D01*
X3165640Y10293390D01*
X3085640Y10316118D02*
G01*
X3031093Y10316118D01*
X3031093Y10325209D01*
X3035640Y10334299D01*
X3040184Y10338846D01*
X3049275Y10343390D01*
X3062912Y10343390D01*
X3072002Y10338846D01*
X3081093Y10329753D01*
X3085640Y10316118D01*
X3085640Y10307027D01*
X3081093Y10293390D01*
X3072002Y10284299D01*
X3062912Y10279753D01*
X3049275Y10279753D01*
X3040184Y10284299D01*
X3031093Y10293390D01*
X3001093Y10375209D02*
G01*
X2996549Y10370662D01*
X2992003Y10375209D01*
X2996549Y10379753D01*
X3001093Y10375209D01*
X2996549Y10343390D02*
G01*
X2996549Y10279753D01*
X2925640Y10375209D02*
G01*
X2934731Y10375209D01*
X2943821Y10370662D01*
X2948365Y10357027D01*
X2948365Y10279753D01*
X2962003Y10343390D02*
G01*
X2930184Y10343390D01*
M02*
