G04 Layer: TopSilkscreenLayer*
G04 EasyEDA v6.5.22, 2023-04-22 10:10:04*
G04 1b96b35224f94a88acdb7b821174fc80,0997c0c323a540828c61b468e30a80a1,10*
G04 Gerber Generator version 0.2*
G04 Scale: 100 percent, Rotated: No, Reflected: No *
G04 Dimensions in millimeters *
G04 leading zeros omitted , absolute positions ,4 integer and 5 decimal *
%FSLAX45Y45*%
%MOMM*%

%ADD10C,0.1700*%
%ADD11C,0.1200*%
%ADD12C,0.1524*%
%ADD13C,0.2540*%
%ADD14C,0.2032*%
%ADD15C,0.2030*%
%ADD16C,0.3000*%
%ADD17C,0.0123*%

%LPD*%
D10*
X2476500Y7695184D02*
G01*
X2476500Y7551928D01*
X2476500Y7551928D02*
G01*
X2558288Y7551928D01*
X2603245Y7695184D02*
G01*
X2603245Y7551928D01*
X2603245Y7695184D02*
G01*
X2650997Y7695184D01*
X2671572Y7688326D01*
X2685034Y7674610D01*
X2691891Y7661147D01*
X2698750Y7640573D01*
X2698750Y7606537D01*
X2691891Y7585963D01*
X2685034Y7572502D01*
X2671572Y7558786D01*
X2650997Y7551928D01*
X2603245Y7551928D01*
X2743708Y7695184D02*
G01*
X2743708Y7551928D01*
X2743708Y7695184D02*
G01*
X2798318Y7551928D01*
X2852927Y7695184D02*
G01*
X2798318Y7551928D01*
X2852927Y7695184D02*
G01*
X2852927Y7551928D01*
X3009645Y7661147D02*
G01*
X3009645Y7668005D01*
X3016504Y7681468D01*
X3023361Y7688326D01*
X3037077Y7695184D01*
X3064256Y7695184D01*
X3077972Y7688326D01*
X3084575Y7681468D01*
X3091434Y7668005D01*
X3091434Y7654289D01*
X3084575Y7640573D01*
X3071113Y7620254D01*
X3002788Y7551928D01*
X3098291Y7551928D01*
X3248406Y7695184D02*
G01*
X3248406Y7551928D01*
X3248406Y7551928D02*
G01*
X3330193Y7551928D01*
X3375152Y7695184D02*
G01*
X3375152Y7551928D01*
X3375152Y7695184D02*
G01*
X3463797Y7695184D01*
X3375152Y7626858D02*
G01*
X3429761Y7626858D01*
X3375152Y7551928D02*
G01*
X3463797Y7551928D01*
X3508756Y7695184D02*
G01*
X3508756Y7551928D01*
X3508756Y7695184D02*
G01*
X3556508Y7695184D01*
X3576827Y7688326D01*
X3590543Y7674610D01*
X3597402Y7661147D01*
X3604259Y7640573D01*
X3604259Y7606537D01*
X3597402Y7585963D01*
X3590543Y7572502D01*
X3576827Y7558786D01*
X3556508Y7551928D01*
X3508756Y7551928D01*
X3754120Y7695184D02*
G01*
X3754120Y7551928D01*
X3754120Y7695184D02*
G01*
X3801872Y7695184D01*
X3822445Y7688326D01*
X3836161Y7674610D01*
X3842765Y7661147D01*
X3849624Y7640573D01*
X3849624Y7606537D01*
X3842765Y7585963D01*
X3836161Y7572502D01*
X3822445Y7558786D01*
X3801872Y7551928D01*
X3754120Y7551928D01*
X3894581Y7695184D02*
G01*
X3901440Y7688326D01*
X3908297Y7695184D01*
X3901440Y7702042D01*
X3894581Y7695184D01*
X3901440Y7647431D02*
G01*
X3901440Y7551928D01*
X4028440Y7626858D02*
G01*
X4021581Y7640573D01*
X4001008Y7647431D01*
X3980688Y7647431D01*
X3960113Y7640573D01*
X3953256Y7626858D01*
X3960113Y7613395D01*
X3973829Y7606537D01*
X4007865Y7599679D01*
X4021581Y7592821D01*
X4028440Y7579360D01*
X4028440Y7572502D01*
X4021581Y7558786D01*
X4001008Y7551928D01*
X3980688Y7551928D01*
X3960113Y7558786D01*
X3953256Y7572502D01*
X4073397Y7647431D02*
G01*
X4073397Y7504176D01*
X4073397Y7626858D02*
G01*
X4086859Y7640573D01*
X4100575Y7647431D01*
X4121150Y7647431D01*
X4134611Y7640573D01*
X4148327Y7626858D01*
X4155186Y7606537D01*
X4155186Y7592821D01*
X4148327Y7572502D01*
X4134611Y7558786D01*
X4121150Y7551928D01*
X4100575Y7551928D01*
X4086859Y7558786D01*
X4073397Y7572502D01*
X4200143Y7695184D02*
G01*
X4200143Y7551928D01*
X4326890Y7647431D02*
G01*
X4326890Y7551928D01*
X4326890Y7626858D02*
G01*
X4313427Y7640573D01*
X4299711Y7647431D01*
X4279138Y7647431D01*
X4265675Y7640573D01*
X4251959Y7626858D01*
X4245102Y7606537D01*
X4245102Y7592821D01*
X4251959Y7572502D01*
X4265675Y7558786D01*
X4279138Y7551928D01*
X4299711Y7551928D01*
X4313427Y7558786D01*
X4326890Y7572502D01*
X4378706Y7647431D02*
G01*
X4419600Y7551928D01*
X4460493Y7647431D02*
G01*
X4419600Y7551928D01*
X4406138Y7524750D01*
X4392422Y7511034D01*
X4378706Y7504176D01*
X4371847Y7504176D01*
X4610608Y7695184D02*
G01*
X4610608Y7551928D01*
X4610608Y7695184D02*
G01*
X4672075Y7695184D01*
X4692395Y7688326D01*
X4699254Y7681468D01*
X4706111Y7668005D01*
X4706111Y7654289D01*
X4699254Y7640573D01*
X4692395Y7633715D01*
X4672075Y7626858D01*
X4610608Y7626858D02*
G01*
X4672075Y7626858D01*
X4692395Y7620254D01*
X4699254Y7613395D01*
X4706111Y7599679D01*
X4706111Y7579360D01*
X4699254Y7565644D01*
X4692395Y7558786D01*
X4672075Y7551928D01*
X4610608Y7551928D01*
X4785106Y7647431D02*
G01*
X4771390Y7640573D01*
X4757927Y7626858D01*
X4751070Y7606537D01*
X4751070Y7592821D01*
X4757927Y7572502D01*
X4771390Y7558786D01*
X4785106Y7551928D01*
X4805679Y7551928D01*
X4819141Y7558786D01*
X4832858Y7572502D01*
X4839715Y7592821D01*
X4839715Y7606537D01*
X4832858Y7626858D01*
X4819141Y7640573D01*
X4805679Y7647431D01*
X4785106Y7647431D01*
X4966461Y7647431D02*
G01*
X4966461Y7551928D01*
X4966461Y7626858D02*
G01*
X4952745Y7640573D01*
X4939284Y7647431D01*
X4918709Y7647431D01*
X4905247Y7640573D01*
X4891531Y7626858D01*
X4884674Y7606537D01*
X4884674Y7592821D01*
X4891531Y7572502D01*
X4905247Y7558786D01*
X4918709Y7551928D01*
X4939284Y7551928D01*
X4952745Y7558786D01*
X4966461Y7572502D01*
X5011420Y7647431D02*
G01*
X5011420Y7551928D01*
X5011420Y7606537D02*
G01*
X5018277Y7626858D01*
X5031993Y7640573D01*
X5045709Y7647431D01*
X5066029Y7647431D01*
X5192775Y7695184D02*
G01*
X5192775Y7551928D01*
X5192775Y7626858D02*
G01*
X5179313Y7640573D01*
X5165597Y7647431D01*
X5145024Y7647431D01*
X5131561Y7640573D01*
X5117845Y7626858D01*
X5110988Y7606537D01*
X5110988Y7592821D01*
X5117845Y7572502D01*
X5131561Y7558786D01*
X5145024Y7551928D01*
X5165597Y7551928D01*
X5179313Y7558786D01*
X5192775Y7572502D01*
D11*
X3039872Y7431531D02*
G01*
X3035554Y7440676D01*
X3026409Y7449565D01*
X3017265Y7454137D01*
X2998977Y7454137D01*
X2990088Y7449565D01*
X2980943Y7440676D01*
X2976372Y7431531D01*
X2971800Y7417815D01*
X2971800Y7395210D01*
X2976372Y7381494D01*
X2980943Y7372350D01*
X2990088Y7363205D01*
X2998977Y7358634D01*
X3017265Y7358634D01*
X3026409Y7363205D01*
X3035554Y7372350D01*
X3039872Y7381494D01*
X3092704Y7422387D02*
G01*
X3083559Y7417815D01*
X3074415Y7408671D01*
X3070097Y7395210D01*
X3070097Y7386065D01*
X3074415Y7372350D01*
X3083559Y7363205D01*
X3092704Y7358634D01*
X3106420Y7358634D01*
X3115309Y7363205D01*
X3124454Y7372350D01*
X3129025Y7386065D01*
X3129025Y7395210D01*
X3124454Y7408671D01*
X3115309Y7417815D01*
X3106420Y7422387D01*
X3092704Y7422387D01*
X3158997Y7422387D02*
G01*
X3158997Y7326884D01*
X3158997Y7408671D02*
G01*
X3168141Y7417815D01*
X3177286Y7422387D01*
X3191002Y7422387D01*
X3199891Y7417815D01*
X3209036Y7408671D01*
X3213608Y7395210D01*
X3213608Y7386065D01*
X3209036Y7372350D01*
X3199891Y7363205D01*
X3191002Y7358634D01*
X3177286Y7358634D01*
X3168141Y7363205D01*
X3158997Y7372350D01*
X3248152Y7422387D02*
G01*
X3275329Y7358634D01*
X3302761Y7422387D02*
G01*
X3275329Y7358634D01*
X3266440Y7340600D01*
X3257295Y7331455D01*
X3248152Y7326884D01*
X3243579Y7326884D01*
X3332734Y7422387D02*
G01*
X3332734Y7358634D01*
X3332734Y7395210D02*
G01*
X3337306Y7408671D01*
X3346450Y7417815D01*
X3355340Y7422387D01*
X3369056Y7422387D01*
X3399027Y7454137D02*
G01*
X3403600Y7449565D01*
X3408172Y7454137D01*
X3403600Y7458710D01*
X3399027Y7454137D01*
X3403600Y7422387D02*
G01*
X3403600Y7358634D01*
X3492754Y7422387D02*
G01*
X3492754Y7349744D01*
X3488181Y7336028D01*
X3483609Y7331455D01*
X3474465Y7326884D01*
X3461004Y7326884D01*
X3451859Y7331455D01*
X3492754Y7408671D02*
G01*
X3483609Y7417815D01*
X3474465Y7422387D01*
X3461004Y7422387D01*
X3451859Y7417815D01*
X3442715Y7408671D01*
X3438143Y7395210D01*
X3438143Y7386065D01*
X3442715Y7372350D01*
X3451859Y7363205D01*
X3461004Y7358634D01*
X3474465Y7358634D01*
X3483609Y7363205D01*
X3492754Y7372350D01*
X3522725Y7454137D02*
G01*
X3522725Y7358634D01*
X3522725Y7404100D02*
G01*
X3536441Y7417815D01*
X3545331Y7422387D01*
X3559047Y7422387D01*
X3568191Y7417815D01*
X3572763Y7404100D01*
X3572763Y7358634D01*
X3616452Y7454137D02*
G01*
X3616452Y7376921D01*
X3620770Y7363205D01*
X3629913Y7358634D01*
X3639058Y7358634D01*
X3602736Y7422387D02*
G01*
X3634486Y7422387D01*
X3770884Y7472426D02*
G01*
X3761740Y7463281D01*
X3752595Y7449565D01*
X3743706Y7431531D01*
X3739134Y7408671D01*
X3739134Y7390637D01*
X3743706Y7367778D01*
X3752595Y7349744D01*
X3761740Y7336028D01*
X3770884Y7326884D01*
X3855465Y7408671D02*
G01*
X3846322Y7417815D01*
X3837177Y7422387D01*
X3823715Y7422387D01*
X3814572Y7417815D01*
X3805427Y7408671D01*
X3800856Y7395210D01*
X3800856Y7386065D01*
X3805427Y7372350D01*
X3814572Y7363205D01*
X3823715Y7358634D01*
X3837177Y7358634D01*
X3846322Y7363205D01*
X3855465Y7372350D01*
X3885438Y7472426D02*
G01*
X3894581Y7463281D01*
X3903725Y7449565D01*
X3912615Y7431531D01*
X3917188Y7408671D01*
X3917188Y7390637D01*
X3912615Y7367778D01*
X3903725Y7349744D01*
X3894581Y7336028D01*
X3885438Y7326884D01*
X4021836Y7431531D02*
G01*
X4021836Y7436104D01*
X4026408Y7444994D01*
X4030979Y7449565D01*
X4039870Y7454137D01*
X4058158Y7454137D01*
X4067302Y7449565D01*
X4071874Y7444994D01*
X4076445Y7436104D01*
X4076445Y7426960D01*
X4071874Y7417815D01*
X4062729Y7404100D01*
X4017263Y7358634D01*
X4080763Y7358634D01*
X4138168Y7454137D02*
G01*
X4124452Y7449565D01*
X4115308Y7436104D01*
X4110990Y7413244D01*
X4110990Y7399781D01*
X4115308Y7376921D01*
X4124452Y7363205D01*
X4138168Y7358634D01*
X4147311Y7358634D01*
X4160774Y7363205D01*
X4169918Y7376921D01*
X4174490Y7399781D01*
X4174490Y7413244D01*
X4169918Y7436104D01*
X4160774Y7449565D01*
X4147311Y7454137D01*
X4138168Y7454137D01*
X4209034Y7431531D02*
G01*
X4209034Y7436104D01*
X4213606Y7444994D01*
X4218177Y7449565D01*
X4227322Y7454137D01*
X4245356Y7454137D01*
X4254500Y7449565D01*
X4259072Y7444994D01*
X4263643Y7436104D01*
X4263643Y7426960D01*
X4259072Y7417815D01*
X4249927Y7404100D01*
X4204461Y7358634D01*
X4268215Y7358634D01*
X4307331Y7454137D02*
G01*
X4357370Y7454137D01*
X4329938Y7417815D01*
X4343654Y7417815D01*
X4352797Y7413244D01*
X4357370Y7408671D01*
X4361688Y7395210D01*
X4361688Y7386065D01*
X4357370Y7372350D01*
X4348225Y7363205D01*
X4334509Y7358634D01*
X4320793Y7358634D01*
X4307331Y7363205D01*
X4302759Y7367778D01*
X4298188Y7376921D01*
X4461763Y7454137D02*
G01*
X4461763Y7358634D01*
X4461763Y7454137D02*
G01*
X4525518Y7358634D01*
X4525518Y7454137D02*
G01*
X4525518Y7358634D01*
X4555490Y7454137D02*
G01*
X4555490Y7358634D01*
X4555490Y7454137D02*
G01*
X4587240Y7454137D01*
X4600956Y7449565D01*
X4610100Y7440676D01*
X4614418Y7431531D01*
X4618990Y7417815D01*
X4618990Y7395210D01*
X4614418Y7381494D01*
X4610100Y7372350D01*
X4600956Y7363205D01*
X4587240Y7358634D01*
X4555490Y7358634D01*
X3517900Y7289037D02*
G01*
X3517900Y7193534D01*
X3517900Y7289037D02*
G01*
X3558793Y7289037D01*
X3572509Y7284465D01*
X3577081Y7279894D01*
X3581654Y7271004D01*
X3581654Y7261860D01*
X3577081Y7252715D01*
X3572509Y7248144D01*
X3558793Y7243571D01*
X3517900Y7243571D01*
X3549650Y7243571D02*
G01*
X3581654Y7193534D01*
X3611625Y7230110D02*
G01*
X3665981Y7230110D01*
X3665981Y7239000D01*
X3661409Y7248144D01*
X3657091Y7252715D01*
X3647947Y7257287D01*
X3634231Y7257287D01*
X3625088Y7252715D01*
X3616197Y7243571D01*
X3611625Y7230110D01*
X3611625Y7220965D01*
X3616197Y7207250D01*
X3625088Y7198105D01*
X3634231Y7193534D01*
X3647947Y7193534D01*
X3657091Y7198105D01*
X3665981Y7207250D01*
X3696208Y7257287D02*
G01*
X3723386Y7193534D01*
X3750563Y7257287D02*
G01*
X3723386Y7193534D01*
X3785108Y7216394D02*
G01*
X3780536Y7211821D01*
X3785108Y7207250D01*
X3789679Y7211821D01*
X3785108Y7216394D01*
X3889756Y7271004D02*
G01*
X3898900Y7275576D01*
X3912361Y7289037D01*
X3912361Y7193534D01*
X3946906Y7216394D02*
G01*
X3942334Y7211821D01*
X3946906Y7207250D01*
X3951477Y7211821D01*
X3946906Y7216394D01*
X3986022Y7266431D02*
G01*
X3986022Y7271004D01*
X3990593Y7279894D01*
X3995165Y7284465D01*
X4004309Y7289037D01*
X4022343Y7289037D01*
X4031488Y7284465D01*
X4036059Y7279894D01*
X4040631Y7271004D01*
X4040631Y7261860D01*
X4036059Y7252715D01*
X4026915Y7239000D01*
X3981450Y7193534D01*
X4045204Y7193534D01*
X4079747Y7216394D02*
G01*
X4075175Y7211821D01*
X4079747Y7207250D01*
X4084320Y7211821D01*
X4079747Y7216394D01*
X4118863Y7266431D02*
G01*
X4118863Y7271004D01*
X4123436Y7279894D01*
X4128008Y7284465D01*
X4136897Y7289037D01*
X4155186Y7289037D01*
X4164329Y7284465D01*
X4168902Y7279894D01*
X4173474Y7271004D01*
X4173474Y7261860D01*
X4168902Y7252715D01*
X4159758Y7239000D01*
X4114291Y7193534D01*
X4177791Y7193534D01*
D12*
X2630677Y9385808D02*
G01*
X2625343Y9396221D01*
X2614929Y9406636D01*
X2604770Y9411715D01*
X2583941Y9411715D01*
X2573527Y9406636D01*
X2563113Y9396221D01*
X2557779Y9385808D01*
X2552700Y9370060D01*
X2552700Y9344152D01*
X2557779Y9328658D01*
X2563113Y9318244D01*
X2573527Y9307829D01*
X2583941Y9302750D01*
X2604770Y9302750D01*
X2614929Y9307829D01*
X2625343Y9318244D01*
X2630677Y9328658D01*
X2675381Y9411715D02*
G01*
X2732531Y9411715D01*
X2701290Y9370060D01*
X2716784Y9370060D01*
X2727197Y9364979D01*
X2732531Y9359900D01*
X2737611Y9344152D01*
X2737611Y9333737D01*
X2732531Y9318244D01*
X2722118Y9307829D01*
X2706370Y9302750D01*
X2690875Y9302750D01*
X2675381Y9307829D01*
X2670047Y9312910D01*
X2664968Y9323324D01*
X3746500Y9284715D02*
G01*
X3746500Y9206737D01*
X3751579Y9191244D01*
X3761993Y9180829D01*
X3777741Y9175750D01*
X3788156Y9175750D01*
X3803650Y9180829D01*
X3814063Y9191244D01*
X3819143Y9206737D01*
X3819143Y9284715D01*
X3853434Y9263887D02*
G01*
X3863847Y9269221D01*
X3879595Y9284715D01*
X3879595Y9175750D01*
X1601470Y9157715D02*
G01*
X1601470Y9074658D01*
X1596136Y9058910D01*
X1591055Y9053829D01*
X1580642Y9048750D01*
X1570228Y9048750D01*
X1559813Y9053829D01*
X1554479Y9058910D01*
X1549400Y9074658D01*
X1549400Y9085071D01*
X1635760Y9136887D02*
G01*
X1645920Y9142221D01*
X1661668Y9157715D01*
X1661668Y9048750D01*
X5970270Y9145015D02*
G01*
X5970270Y9061958D01*
X5964936Y9046210D01*
X5959856Y9041129D01*
X5949441Y9036050D01*
X5939027Y9036050D01*
X5928613Y9041129D01*
X5923279Y9046210D01*
X5918200Y9061958D01*
X5918200Y9072371D01*
X6009640Y9119108D02*
G01*
X6009640Y9124187D01*
X6014720Y9134602D01*
X6020054Y9139936D01*
X6030468Y9145015D01*
X6051295Y9145015D01*
X6061709Y9139936D01*
X6066790Y9134602D01*
X6071870Y9124187D01*
X6071870Y9113774D01*
X6066790Y9103360D01*
X6056375Y9087865D01*
X6004559Y9036050D01*
X6077204Y9036050D01*
X4434840Y5797550D02*
G01*
X4434840Y5688584D01*
X4434840Y5797550D02*
G01*
X4481575Y5797550D01*
X4497070Y5792470D01*
X4502150Y5787136D01*
X4507484Y5776976D01*
X4507484Y5766562D01*
X4502150Y5756147D01*
X4497070Y5750813D01*
X4481575Y5745734D01*
X4434840Y5745734D01*
X4471161Y5745734D02*
G01*
X4507484Y5688584D01*
X4567681Y5797550D02*
G01*
X4552188Y5792470D01*
X4546854Y5782055D01*
X4546854Y5771642D01*
X4552188Y5761228D01*
X4562602Y5756147D01*
X4583429Y5750813D01*
X4598924Y5745734D01*
X4609338Y5735320D01*
X4614418Y5724905D01*
X4614418Y5709412D01*
X4609338Y5698997D01*
X4604004Y5693663D01*
X4588509Y5688584D01*
X4567681Y5688584D01*
X4552188Y5693663D01*
X4546854Y5698997D01*
X4541774Y5709412D01*
X4541774Y5724905D01*
X4546854Y5735320D01*
X4557268Y5745734D01*
X4573015Y5750813D01*
X4593590Y5756147D01*
X4604004Y5761228D01*
X4609338Y5771642D01*
X4609338Y5782055D01*
X4604004Y5792470D01*
X4588509Y5797550D01*
X4567681Y5797550D01*
X2895879Y8284819D02*
G01*
X2890545Y8295233D01*
X2880131Y8305647D01*
X2869971Y8310727D01*
X2849143Y8310727D01*
X2838729Y8305647D01*
X2828315Y8295233D01*
X2822981Y8284819D01*
X2817901Y8269071D01*
X2817901Y8243163D01*
X2822981Y8227669D01*
X2828315Y8217255D01*
X2838729Y8206841D01*
X2849143Y8201761D01*
X2869971Y8201761D01*
X2880131Y8206841D01*
X2890545Y8217255D01*
X2895879Y8227669D01*
X2930169Y8289899D02*
G01*
X2940583Y8295233D01*
X2956077Y8310727D01*
X2956077Y8201761D01*
X2353690Y9391218D02*
G01*
X2348356Y9401632D01*
X2337943Y9412046D01*
X2327783Y9417126D01*
X2306954Y9417126D01*
X2296540Y9412046D01*
X2286127Y9401632D01*
X2280793Y9391218D01*
X2275713Y9375470D01*
X2275713Y9349562D01*
X2280793Y9334068D01*
X2286127Y9323654D01*
X2296540Y9313240D01*
X2306954Y9308160D01*
X2327783Y9308160D01*
X2337943Y9313240D01*
X2348356Y9323654D01*
X2353690Y9334068D01*
X2393061Y9391218D02*
G01*
X2393061Y9396298D01*
X2398395Y9406712D01*
X2403475Y9412046D01*
X2413888Y9417126D01*
X2434716Y9417126D01*
X2445131Y9412046D01*
X2450211Y9406712D01*
X2455545Y9396298D01*
X2455545Y9385884D01*
X2450211Y9375470D01*
X2439797Y9359976D01*
X2387981Y9308160D01*
X2460625Y9308160D01*
X3939793Y10594263D02*
G01*
X3939793Y10485297D01*
X3939793Y10594263D02*
G01*
X3986529Y10594263D01*
X4002024Y10589183D01*
X4007358Y10583849D01*
X4012438Y10573435D01*
X4012438Y10563021D01*
X4007358Y10552607D01*
X4002024Y10547527D01*
X3986529Y10542447D01*
X3939793Y10542447D01*
X3976115Y10542447D02*
G01*
X4012438Y10485297D01*
X4046727Y10573435D02*
G01*
X4057141Y10578769D01*
X4072890Y10594263D01*
X4072890Y10485297D01*
X4435093Y10848263D02*
G01*
X4435093Y10739297D01*
X4435093Y10848263D02*
G01*
X4481829Y10848263D01*
X4497324Y10843183D01*
X4502658Y10837849D01*
X4507738Y10827435D01*
X4507738Y10817021D01*
X4502658Y10806607D01*
X4497324Y10801527D01*
X4481829Y10796447D01*
X4435093Y10796447D01*
X4471415Y10796447D02*
G01*
X4507738Y10739297D01*
X4547361Y10822355D02*
G01*
X4547361Y10827435D01*
X4552441Y10837849D01*
X4557775Y10843183D01*
X4568190Y10848263D01*
X4588763Y10848263D01*
X4599177Y10843183D01*
X4604511Y10837849D01*
X4609591Y10827435D01*
X4609591Y10817021D01*
X4604511Y10806607D01*
X4594097Y10791113D01*
X4542027Y10739297D01*
X4614925Y10739297D01*
X3921302Y6066739D02*
G01*
X3921302Y5957773D01*
X3921302Y6066739D02*
G01*
X3968038Y6066739D01*
X3983532Y6061659D01*
X3988866Y6056325D01*
X3993946Y6045911D01*
X3993946Y6035497D01*
X3988866Y6025083D01*
X3983532Y6020003D01*
X3968038Y6014923D01*
X3921302Y6014923D01*
X3957624Y6014923D02*
G01*
X3993946Y5957773D01*
X4038650Y6066739D02*
G01*
X4095800Y6066739D01*
X4064812Y6025083D01*
X4080306Y6025083D01*
X4090720Y6020003D01*
X4095800Y6014923D01*
X4101134Y5999175D01*
X4101134Y5988761D01*
X4095800Y5973267D01*
X4085386Y5962853D01*
X4069892Y5957773D01*
X4054398Y5957773D01*
X4038650Y5962853D01*
X4033570Y5967933D01*
X4028236Y5978347D01*
X3413302Y6066739D02*
G01*
X3413302Y5957773D01*
X3413302Y6066739D02*
G01*
X3460038Y6066739D01*
X3475532Y6061659D01*
X3480866Y6056325D01*
X3485946Y6045911D01*
X3485946Y6035497D01*
X3480866Y6025083D01*
X3475532Y6020003D01*
X3460038Y6014923D01*
X3413302Y6014923D01*
X3449624Y6014923D02*
G01*
X3485946Y5957773D01*
X3572306Y6066739D02*
G01*
X3520236Y5994095D01*
X3598214Y5994095D01*
X3572306Y6066739D02*
G01*
X3572306Y5957773D01*
X2895600Y5779515D02*
G01*
X2895600Y5670550D01*
X2895600Y5779515D02*
G01*
X2942336Y5779515D01*
X2957829Y5774436D01*
X2963163Y5769102D01*
X2968243Y5758687D01*
X2968243Y5748273D01*
X2963163Y5737860D01*
X2957829Y5732779D01*
X2942336Y5727700D01*
X2895600Y5727700D01*
X2931922Y5727700D02*
G01*
X2968243Y5670550D01*
X3065018Y5779515D02*
G01*
X3012947Y5779515D01*
X3007868Y5732779D01*
X3012947Y5737860D01*
X3028695Y5743194D01*
X3044190Y5743194D01*
X3059684Y5737860D01*
X3070097Y5727700D01*
X3075431Y5711952D01*
X3075431Y5701537D01*
X3070097Y5686044D01*
X3059684Y5675629D01*
X3044190Y5670550D01*
X3028695Y5670550D01*
X3012947Y5675629D01*
X3007868Y5680710D01*
X3002534Y5691123D01*
X3426002Y10587939D02*
G01*
X3426002Y10478973D01*
X3426002Y10587939D02*
G01*
X3472738Y10587939D01*
X3488232Y10582859D01*
X3493566Y10577525D01*
X3498646Y10567111D01*
X3498646Y10556697D01*
X3493566Y10546283D01*
X3488232Y10541203D01*
X3472738Y10536123D01*
X3426002Y10536123D01*
X3462324Y10536123D02*
G01*
X3498646Y10478973D01*
X3595420Y10572445D02*
G01*
X3590086Y10582859D01*
X3574592Y10587939D01*
X3564178Y10587939D01*
X3548684Y10582859D01*
X3538270Y10567111D01*
X3532936Y10541203D01*
X3532936Y10515295D01*
X3538270Y10494467D01*
X3548684Y10484053D01*
X3564178Y10478973D01*
X3569512Y10478973D01*
X3585006Y10484053D01*
X3595420Y10494467D01*
X3600500Y10509961D01*
X3600500Y10515295D01*
X3595420Y10530789D01*
X3585006Y10541203D01*
X3569512Y10546283D01*
X3564178Y10546283D01*
X3548684Y10541203D01*
X3538270Y10530789D01*
X3532936Y10515295D01*
X2891104Y10845850D02*
G01*
X2891104Y10736884D01*
X2891104Y10845850D02*
G01*
X2937840Y10845850D01*
X2953334Y10840770D01*
X2958668Y10835436D01*
X2963748Y10825022D01*
X2963748Y10814608D01*
X2958668Y10804194D01*
X2953334Y10799114D01*
X2937840Y10794034D01*
X2891104Y10794034D01*
X2927426Y10794034D02*
G01*
X2963748Y10736884D01*
X3070936Y10845850D02*
G01*
X3018866Y10736884D01*
X2998038Y10845850D02*
G01*
X3070936Y10845850D01*
G36*
X2721660Y8856980D02*
G01*
X2721660Y8811260D01*
X2736850Y8811260D01*
X2736850Y8856980D01*
G37*
G36*
X2546350Y8856980D02*
G01*
X2546350Y8811260D01*
X2561539Y8811260D01*
X2561539Y8856980D01*
G37*
D13*
X1462506Y11785600D02*
G01*
X6192494Y11785600D01*
X6192494Y4805603D01*
X1452498Y4805603D01*
X1442491Y4815611D01*
X1442491Y11775617D01*
X1452498Y11785600D01*
D12*
X2729222Y9184617D02*
G01*
X2729222Y8849382D01*
X2553977Y9184617D02*
G01*
X2553977Y8849382D01*
X2729222Y8956568D02*
G01*
X2553977Y8956568D01*
X3269279Y8610859D02*
G01*
X3269279Y8915140D01*
X4274520Y8915140D01*
X4274520Y8610859D01*
X3269279Y8610859D01*
D14*
X1739900Y8801100D02*
G01*
X1739900Y8991600D01*
X1485900Y8991600D01*
X1485900Y6451600D01*
X1739900Y6451600D01*
D15*
X1739900Y6451600D02*
G01*
X1739900Y8801100D01*
D14*
X6134100Y8801084D02*
G01*
X6134100Y8991584D01*
X5880100Y8991584D01*
X5880100Y6451584D01*
X6134100Y6451584D01*
D15*
X6134100Y6451584D02*
G01*
X6134100Y8801084D01*
D12*
X4413290Y5302379D02*
G01*
X4413290Y5166387D01*
X4629109Y5166387D01*
X4629109Y5302379D01*
X4413290Y5492620D02*
G01*
X4413290Y5628612D01*
X4629109Y5628612D01*
X4629109Y5492620D01*
X3381519Y8345360D02*
G01*
X3240519Y8345360D01*
X3240519Y8164639D02*
G01*
X3381519Y8164639D01*
X3396759Y8179879D02*
G01*
X3396759Y8330120D01*
X3019280Y8345360D02*
G01*
X3160280Y8345360D01*
X3160280Y8164639D02*
G01*
X3019280Y8164639D01*
X3004040Y8179879D02*
G01*
X3004040Y8330120D01*
X2465260Y8899380D02*
G01*
X2465260Y9040380D01*
X2284539Y9040380D02*
G01*
X2284539Y8899380D01*
X2299779Y8884140D02*
G01*
X2450020Y8884140D01*
X2465260Y9261619D02*
G01*
X2465260Y9120619D01*
X2284539Y9120619D02*
G01*
X2284539Y9261619D01*
X2299779Y9276859D02*
G01*
X2450020Y9276859D01*
X4108409Y10966320D02*
G01*
X4108409Y11102312D01*
X3892590Y11102312D01*
X3892590Y10966320D01*
X4108409Y10776079D02*
G01*
X4108409Y10640087D01*
X3892590Y10640087D01*
X3892590Y10776079D01*
X4629109Y11220320D02*
G01*
X4629109Y11356312D01*
X4413290Y11356312D01*
X4413290Y11220320D01*
X4629109Y11030079D02*
G01*
X4629109Y10894087D01*
X4413290Y10894087D01*
X4413290Y11030079D01*
X3892590Y5581779D02*
G01*
X3892590Y5445787D01*
X4108409Y5445787D01*
X4108409Y5581779D01*
X3892590Y5772020D02*
G01*
X3892590Y5908012D01*
X4108409Y5908012D01*
X4108409Y5772020D01*
X3384590Y5581779D02*
G01*
X3384590Y5445787D01*
X3600409Y5445787D01*
X3600409Y5581779D01*
X3384590Y5772020D02*
G01*
X3384590Y5908012D01*
X3600409Y5908012D01*
X3600409Y5772020D01*
X2863890Y5289679D02*
G01*
X2863890Y5153687D01*
X3079709Y5153687D01*
X3079709Y5289679D01*
X2863890Y5479920D02*
G01*
X2863890Y5615912D01*
X3079709Y5615912D01*
X3079709Y5479920D01*
X3613109Y10966320D02*
G01*
X3613109Y11102312D01*
X3397290Y11102312D01*
X3397290Y10966320D01*
X3613109Y10776079D02*
G01*
X3613109Y10640087D01*
X3397290Y10640087D01*
X3397290Y10776079D01*
X3079709Y11220320D02*
G01*
X3079709Y11356312D01*
X2863890Y11356312D01*
X2863890Y11220320D01*
X3079709Y11030079D02*
G01*
X3079709Y10894087D01*
X2863890Y10894087D01*
X2863890Y11030079D01*
G75*
G01*
X3381520Y8164640D02*
G03*
X3396760Y8179880I0J15240D01*
G75*
G01*
X3396760Y8330121D02*
G03*
X3381520Y8345360I-15240J-1D01*
G75*
G01*
X3019280Y8164640D02*
G02*
X3004040Y8179880I0J15240D01*
G75*
G01*
X3004040Y8330121D02*
G02*
X3019280Y8345360I15240J-1D01*
G75*
G01*
X2284540Y8899380D02*
G03*
X2299779Y8884140I15240J0D01*
G75*
G01*
X2450021Y8884140D02*
G03*
X2465260Y8899380I-1J15240D01*
G75*
G01*
X2284540Y9261620D02*
G02*
X2299779Y9276860I15240J0D01*
G75*
G01*
X2450021Y9276860D02*
G02*
X2465260Y9261620I-1J-15240D01*
D16*
G75*
G01
X3342411Y8686089D02*
G03X3342411Y8686089I-15011J0D01*
G75*
G01
X3266211Y8496300D02*
G03X3266211Y8496300I-15011J0D01*
M02*
